<?xml version="1.0" standalone="no"?>
<!DOCTYPE svg PUBLIC "-//W3C//DTD SVG 1.1//EN" "http://www.w3.org/Graphics/SVG/1.1/DTD/svg11.dtd" >
<svg xmlns="http://www.w3.org/2000/svg">
<metadata></metadata>
<defs>
<font id="berthold_akzidenz_grotesk_bBd" horiz-adv-x="811" >
<font-face units-per-em="2048" ascent="1638" descent="-410" />
<missing-glyph horiz-adv-x="512" />
<glyph horiz-adv-x="0" />
<glyph horiz-adv-x="682" />
<glyph unicode=" "  horiz-adv-x="512" />
<glyph unicode="&#x09;" horiz-adv-x="512" />
<glyph unicode="&#xa0;" horiz-adv-x="512" />
<glyph unicode="!" horiz-adv-x="468" d="M154 0v270h243v-270h-243zM160 793v653h231v-641l-39 -416h-159z" />
<glyph unicode="&#x22;" d="M106 1423q0 58 36 84.5t77 26.5q47 0 77.5 -32.5t22.5 -88.5l-83 -524h-48l-77 500q-5 30 -5 34zM489 1423q0 58 36 84.5t77 26.5q47 0 77.5 -32.5t22.5 -88.5l-84 -524h-47l-77 500q-5 30 -5 34z" />
<glyph unicode="#" horiz-adv-x="1193" d="M0 471v158h305l33 219h-289v158h309l64 440h164l-62 -440h226l63 440h160l-60 -440h283v-158h-305l-33 -219h287v-158h-307l-68 -471h-164l68 471h-228l-65 -471h-166l68 471h-283zM469 629h227l31 219h-227z" />
<glyph unicode="$" horiz-adv-x="854" d="M76 1100q0 51 8 94.5t20 74.5t33 57t38.5 42.5t45 30t45 20t45.5 11.5t39.5 6.5t34.5 3.5v164h104v-164q68 -9 117.5 -33t77.5 -57t46 -75.5t22.5 -89.5t6.5 -99t-1 -103h-230v135q0 27 -2 44t-11 42.5t-32.5 39t-60.5 13.5q-113 0 -113 -151q0 -45 11.5 -69.5 t39.5 -53.5l306 -317q71 -73 95.5 -134t24.5 -174q0 -341 -297 -370v-193h-104v193q-62 4 -111.5 20t-80 37t-53 53.5t-33 57.5t-16.5 62t-6.5 55t-0.5 46v160h225v-162q0 -135 125 -135q29 0 51 8t34.5 24.5t20.5 31.5t11 39t3.5 37t0.5 34q0 49 -13 87.5t-53 80.5 l-288 293q-73 75 -99 139t-26 144z" />
<glyph unicode="%" horiz-adv-x="1449" d="M53 672v461q0 20 0.5 33.5t5.5 41t13.5 47t26.5 44t43 39.5t65 25.5t90 10.5q51 0 91.5 -10t66 -24.5t44 -37.5t27 -41t13.5 -44t5.5 -38t0.5 -30v-481q0 -110 -64.5 -166t-177.5 -56q-52 0 -92.5 9.5t-66.5 23t-44.5 36t-27 40.5t-13.5 44t-5.5 39t-0.5 34zM217 655 q0 -16 2.5 -27.5t10 -24t25 -19t44.5 -6.5q28 0 46 8t24.5 24t8 26.5t1.5 29.5v485q0 26 -1.5 38.5t-8.5 28.5t-25 22.5t-47 6.5q-23 0 -39 -6.5t-24 -14.5t-12 -23.5t-4.5 -25.5t-0.5 -28v-494zM389 -47l545 1509l129 -45l-543 -1509zM907 213v463q0 20 0.5 33t5.5 40.5 t13.5 46.5t26.5 43.5t43 39.5t65 25.5t90 10.5q51 0 91.5 -10t66 -24.5t44 -37.5t27 -41t13.5 -44t5.5 -38t0.5 -30v-481q0 -110 -64 -165.5t-178 -55.5q-71 0 -121.5 18t-74.5 41t-37.5 59.5t-15 56.5t-1.5 50zM1071 197q0 -15 2.5 -26.5t10 -24.5t25 -20t44.5 -7 q28 0 46 8t24.5 24t8 26.5t1.5 29.5v485q0 26 -1.5 38.5t-8.5 28.5t-25 22.5t-47 6.5q-28 0 -46 -8t-24.5 -25t-8 -29t-1.5 -34v-495z" />
<glyph unicode="&#x26;" horiz-adv-x="1067" d="M55 375q0 73 20.5 140t60 124.5t78 100t93.5 91.5q-106 195 -106 338q0 30 6 64t25.5 78t50.5 78t87.5 57.5t129.5 23.5q128 0 203 -73t75 -189q0 -46 -10.5 -89.5t-24 -76t-46 -78.5t-56 -75.5t-74.5 -89.5l189 -371q41 105 43 227h211q-8 -144 -37 -244t-94 -190 q32 -35 64.5 -45t92.5 -8v-174q-74 -12 -114 -12q-116 0 -191 75q-44 -25 -75 -40t-86 -28.5t-113 -13.5q-188 0 -295 113.5t-107 286.5zM295 375q0 -87 54 -134.5t122 -47.5t141 43l-211 382q-32 -39 -51 -67.5t-37 -77.5t-18 -98zM418 1182q0 -50 49 -166q62 89 79 121 t17 69q0 40 -21 58t-46 18q-36 0 -57 -29.5t-21 -70.5z" />
<glyph unicode="'" horiz-adv-x="425" d="M106 1423q0 58 36 84.5t77 26.5q47 0 77.5 -32.5t22.5 -88.5l-83 -524h-48l-77 500q-5 30 -5 34z" />
<glyph unicode="(" horiz-adv-x="598" d="M111 203v821q0 100 34 188t96.5 156t140.5 121t175 96v-190q-53 -31 -91.5 -72t-59.5 -80t-33 -88t-15.5 -86.5t-3.5 -85.5v-801q0 -125 43.5 -206.5t159.5 -170.5v-178q-81 27 -175 88.5t-155 134.5q-60 72 -88 155t-28 198z" />
<glyph unicode=")" horiz-adv-x="598" d="M41 -182q53 31 91.5 72t59.5 80t33 87.5t15.5 86t3.5 85.5v801q0 125 -43.5 206.5t-159.5 170.5v178q79 -25 174.5 -87.5t155.5 -135.5q59 -73 87.5 -156.5t28.5 -195.5v-824q0 -188 -117.5 -327.5t-328.5 -231.5v191z" />
<glyph unicode="*" horiz-adv-x="681" d="M37 1155l41 139l188 -53v205h148v-205l186 59l47 -135l-184 -65l117 -158l-117 -88l-115 160l-117 -160l-116 78l116 168z" />
<glyph unicode="+" horiz-adv-x="1024" d="M63 514v164h365v366h164v-366h366v-164h-366v-367h-164v367h-365z" />
<glyph unicode="," horiz-adv-x="382" d="M51 -276l142 276h-121v264h241v-264l-170 -276h-92z" />
<glyph unicode="-" horiz-adv-x="681" d="M68 446v203h548v-203h-548z" />
<glyph unicode="." horiz-adv-x="382" d="M72 0v264h241v-264h-241z" />
<glyph unicode="/" horiz-adv-x="512" d="M25 0l266 1446h201l-265 -1446h-202z" />
<glyph unicode="0" d="M59 317v705q0 79 10 131t44 100q90 127 288 127q72 0 129 -15t92.5 -36.5t61.5 -55t38.5 -61t19 -66t7.5 -57t1 -45.5v-733q0 -164 -99 -254q-83 -75 -239 -75q-73 0 -130.5 14t-93.5 34.5t-62.5 53.5t-39 59.5t-19 65t-7.5 58.5t-1 50zM295 293q0 -127 106 -127 q32 0 55 11t34 24t16.5 36.5t6.5 36.5t1 35v740q0 29 -0.5 44.5t-6 39.5t-16 36.5t-31.5 22.5t-52 10q-32 0 -55 -10t-34 -23t-16.5 -36t-6.5 -36.5t-1 -37.5v-766z" />
<glyph unicode="1" d="M98 954v189q82 18 170 88q25 19 46.5 42.5t31 36.5t37.5 52h160v-1362h-240v1040q-68 -62 -205 -86z" />
<glyph unicode="2" d="M43 0q0 75 7.5 140t18 113t31.5 95t38 76.5t48 67t50.5 57.5t56.5 57q62 61 88.5 87.5t58 61.5t40 48.5t18.5 37t11 39t1 44.5v155q0 119 -100 119q-38 0 -62.5 -11.5t-35 -33.5t-14 -41t-3.5 -45v-164h-223v168q0 31 2 53.5t9.5 57.5t27.5 67.5t51 59.5q86 71 241 71 q57 0 108 -10.5t96 -32.5t77 -60.5t45 -90.5q16 -64 16 -142v-139q0 -106 -35.5 -169.5t-160.5 -188.5q-66 -67 -92.5 -94t-62 -65.5t-45 -53t-22.5 -40t-15.5 -43t-4.5 -46.5h455v-205h-719z" />
<glyph unicode="3" d="M59 262v166h236v-145q0 -18 1 -29t7 -30t17 -30.5t35 -20.5t57 -9q102 0 102 110v203q0 49 -8.5 80t-22.5 49.5t-45 27.5t-61.5 11t-87.5 2v160q127 0 172 31t45 135v102q0 25 -2 40.5t-11 36.5t-31.5 31.5t-58.5 10.5q-30 0 -51.5 -8.5t-31.5 -19.5t-16 -27.5t-6.5 -25 t-0.5 -19.5v-140h-225v168q0 62 27 115.5t77 85.5q86 57 236 57q90 0 156.5 -25.5t98.5 -58t51 -76.5t22 -68t3 -46v-160q0 -105 -42 -149.5t-154 -61.5q67 -11 101 -22t60.5 -36.5t35 -66t8.5 -110.5v-207q0 -70 -20.5 -125t-53.5 -89.5t-79 -56.5t-92.5 -31t-98.5 -9 q-165 0 -257 79t-92 201z" />
<glyph unicode="4" d="M45 258v191l348 919h285v-919h82v-191h-82v-258h-219v258h-414zM246 449h213l16 679z" />
<glyph unicode="5" d="M59 283v141h234v-139q0 -117 106 -117q21 0 36.5 3.5t34.5 14.5t29.5 37.5t10.5 67.5v325q0 27 -0.5 40t-6 38.5t-15.5 39t-32 25t-53 11.5q-110 0 -133 -139h-186l14 731h633v-205h-442l-4 -280q32 22 52.5 34t61 24.5t86.5 12.5q116 0 185 -65q52 -45 67 -100t15 -128 v-338q0 -31 -2 -56t-9.5 -61t-21 -64t-39 -58.5t-60.5 -50t-89 -32.5t-121 -13q-161 0 -250 67q-101 79 -101 234z" />
<glyph unicode="6" d="M63 301v782q0 71 22 125t56.5 86t83 52t94.5 27t97 7q120 0 205 -45q20 -10 36 -22.5t28 -23.5t21 -29.5t15 -30.5t10 -37t6 -39.5t3 -47t1 -49.5v-57h-225q0 45 -0.5 65t-3.5 49t-9 40t-17.5 24t-29.5 17t-44 4q-33 0 -56 -10t-34.5 -22.5t-17 -34.5t-6.5 -34.5 t-1 -33.5v-268q30 24 50.5 38t67.5 30t99 16q49 0 88.5 -13t64 -31.5t42.5 -46.5t26.5 -50.5t13 -52t5 -42.5t0.5 -29v-317q0 -24 -1 -41t-7.5 -52.5t-18.5 -61.5t-37.5 -58t-60.5 -52.5t-91.5 -35t-127.5 -14.5q-146 0 -236 63q-32 22 -54 51t-33 53t-17 57t-6.5 50 t-0.5 45zM297 326q0 -25 1 -39.5t6.5 -40t17 -40t34.5 -26.5t56 -12q30 0 51.5 10t31.5 22.5t16 32.5t6.5 31t0.5 27v246q0 25 -0.5 39.5t-6 38t-16 36t-32 23t-51.5 10.5q-115 0 -115 -135v-223z" />
<glyph unicode="7" d="M41 1001v361h733v-203q-40 -71 -67 -122t-79.5 -178t-90.5 -261q-91 -335 -91 -598h-256q8 217 109.5 553.5t259.5 607.5h-319v-160h-199z" />
<glyph unicode="8" d="M55 293v174q0 65 9.5 107.5t35 71.5t47.5 43t70 38q-34 16 -54.5 29.5t-43 38t-33 62t-10.5 89.5v144q0 290 327 290q68 0 122 -13t88 -32t58.5 -49t36 -54t17.5 -58.5t7 -51t1 -41.5v-118q0 -102 -26.5 -147t-116.5 -89q34 -15 51 -24t41.5 -27.5t36 -40t20.5 -56.5 t9 -81v-185q0 -81 -12.5 -129t-47.5 -88q-95 -114 -276 -114q-166 0 -261.5 78.5t-95.5 232.5zM293 293q0 -43 12 -70.5t33.5 -37.5t34 -12.5t30.5 -2.5q113 0 113 123v211q0 21 -1.5 36.5t-8 35.5t-17.5 32.5t-32.5 21.5t-50.5 9q-32 0 -55 -10.5t-34 -23t-17 -34.5 t-6.5 -34.5t-0.5 -32.5v-211zM301 926q0 -64 25.5 -90.5t81.5 -26.5q29 0 49 8.5t29.5 19t15 31.5t6 34t0.5 38v141q0 113 -102 113q-41 0 -73 -22.5t-32 -79.5v-166z" />
<glyph unicode="9" d="M53 258v109h236q0 -99 2 -117q1 -15 4 -25.5t12.5 -27t32.5 -26t57 -9.5q28 0 48.5 5t32.5 16.5t19.5 22t10.5 31.5t3.5 33.5t0.5 38.5v258q-36 -27 -58.5 -41t-62.5 -26.5t-86 -12.5q-126 0 -189 64.5t-63 173.5v336q0 166 85.5 242.5t271.5 76.5q335 0 335 -299v-790 q0 -309 -358 -309q-168 0 -251 75t-83 201zM289 823q0 -22 0.5 -33.5t3 -32t9.5 -32t18 -24.5t30 -19t45 -6q34 0 57 10t34.5 22.5t17.5 36t7 38t1 40.5v250q0 127 -109 127q-33 0 -56 -10t-34 -22.5t-17 -35.5t-6.5 -35.5t-0.5 -35.5v-238z" />
<glyph unicode=":" horiz-adv-x="468" d="M156 0v266h245v-266h-245zM156 782v267h245v-267h-245z" />
<glyph unicode=";" horiz-adv-x="468" d="M137 -274l146 274h-129v266h243v-266l-168 -274h-92zM154 782v267h243v-267h-243z" />
<glyph unicode="&#x3c;" horiz-adv-x="1024" d="M0 635v176l1024 496v-179l-821 -405l821 -406v-178z" />
<glyph unicode="=" horiz-adv-x="1024" d="M0 328v159h1024v-159h-1024zM0 698v160h1024v-160h-1024z" />
<glyph unicode="&#x3e;" horiz-adv-x="1024" d="M0 139v178l821 406l-821 405v179l1024 -496v-176z" />
<glyph unicode="?" horiz-adv-x="854" d="M133 948v152q0 65 2.5 100.5t19.5 93.5t50 89t99.5 56t162.5 25q68 0 121.5 -11.5t87.5 -28t58 -45.5t35.5 -52t17.5 -61t7 -58.5t1 -58.5q0 -108 -7.5 -160.5t-20.5 -80.5t-54 -87l-101 -149q-66 -97 -78 -134t-12 -149h-231q0 138 9.5 180t61.5 123l134 209 q41 64 49 88.5t8 81.5v103q0 26 -3 45t-11.5 38.5t-28.5 30t-51 10.5q-99 0 -99 -110v-240h-227zM291 0v266h239v-266h-239z" />
<glyph unicode="@" horiz-adv-x="1835" d="M141 481q0 189 71 366.5t193.5 312.5t300.5 216.5t379 81.5q276 0 442.5 -160t166.5 -432q0 -181 -67 -349t-177 -271t-227 -103q-45 0 -78 14t-50 31.5t-27.5 45.5t-12.5 43.5t-4 39.5q-127 -172 -295 -172q-10 0 -21.5 1t-40 7.5t-52.5 18t-53.5 37t-50.5 59.5t-35 90 t-14 125q0 144 60.5 278t161.5 217t213 83q158 0 233 -174l31 127h139l-67 -307q-3 -14 -11 -53.5t-11 -54t-9.5 -47.5t-9 -48t-7 -41.5t-6 -42.5t-3 -35.5t-1.5 -36.5q0 -31 9 -45.5t34 -34.5h21q45 0 98.5 49t100.5 128t78.5 190.5t31.5 224.5q0 237 -140 362.5 t-368 125.5q-124 0 -244.5 -43t-222 -123t-179 -186.5t-121.5 -241.5t-44 -279q0 -125 38.5 -229t103 -174.5t151 -119t181 -71t194.5 -22.5q192 0 366.5 78.5t321.5 218.5l67 -82q-160 -154 -352 -241t-397 -87q-70 0 -142.5 11t-150.5 36.5t-149 64t-135 98t-110.5 133 t-74 174.5t-27.5 218zM651 487q0 -59 16 -102.5t36 -63.5t47 -31t39 -12.5t22 -1.5q79 0 148.5 65t109 165.5t39.5 206.5q0 60 -16.5 104t-43 67t-54 33.5t-54.5 10.5q-66 0 -122.5 -43t-91.5 -109.5t-55 -142.5t-20 -146z" />
<glyph unicode="A" horiz-adv-x="894" d="M20 0l281 1446h305l271 -1446h-271l-35 236h-245l-39 -236h-267zM358 459h185l-88 620z" />
<glyph unicode="B" horiz-adv-x="980" d="M102 0v1446h449q83 0 132 -8.5t89 -34.5q63 -40 84 -102t21 -150v-129q0 -68 -11.5 -114t-36 -71.5t-52 -38t-70.5 -20.5q51 -10 85 -26t54 -35.5t30 -52.5t12.5 -64.5t2.5 -85.5v-205q0 -27 -0.5 -43t-3 -45t-9 -49.5t-16.5 -45t-27.5 -45t-41.5 -36.5q-67 -45 -234 -45 h-457zM369 209h110q47 0 71.5 4t45 18.5t28 43.5t7.5 79v170q0 87 -30.5 114.5t-117.5 27.5h-114v-457zM369 874q143 0 172 5q39 9 55 40t16 89q0 104 -1.5 129t-8.5 43q-11 34 -41.5 46.5t-85.5 12.5h-106v-365z" />
<glyph unicode="C" horiz-adv-x="937" d="M92 307v787q0 101 13 159.5t59 108.5q106 115 323 115q81 0 145.5 -14t105 -34t69.5 -53t43 -59.5t21.5 -65.5t8.5 -58.5t1 -51.5v-223h-265v184q0 90 -26.5 130t-108.5 40q-34 0 -58 -10.5t-36 -25.5t-19 -38.5t-8.5 -41t-1.5 -42.5v-774q0 -37 4.5 -62.5t17.5 -50.5 t41 -38t71 -13q36 0 60.5 11t37 25t18.5 42.5t7 46t1 53.5v189h265v-205q0 -52 -2.5 -85.5t-23.5 -93t-59 -96t-117.5 -65.5t-191.5 -29q-173 0 -280 70q-33 22 -56 50.5t-34.5 52.5t-17 59t-6.5 54t-1 52z" />
<glyph unicode="D" horiz-adv-x="980" d="M102 0v1446h430q35 0 54.5 -0.5t54.5 -5t59.5 -13.5t55 -27t55.5 -44q52 -54 69 -122t17 -169v-676q0 -49 -2.5 -85.5t-11.5 -79t-24.5 -73.5t-43 -61t-65.5 -48.5t-94 -30t-126 -11.5h-428zM369 211q145 0 168 4q27 4 46.5 17t29 26.5t14.5 36.5t5.5 36.5t0.5 35.5v720 q0 93 -33.5 120.5t-126.5 27.5h-104v-1024z" />
<glyph unicode="E" horiz-adv-x="854" d="M102 0v1448h701v-221h-434v-340h407v-219h-407v-445h452v-223h-719z" />
<glyph unicode="F" d="M102 0v1446h707v-223h-438v-363h413v-215h-413v-645h-269z" />
<glyph unicode="G" horiz-adv-x="980" d="M90 264v823q0 40 1.5 68t10.5 72t24.5 75t46 66.5t73 57.5t108 36.5t148.5 14.5q173 0 276 -66q109 -70 109 -221v-211h-266v137q0 29 -1 44.5t-7 39.5t-18.5 36t-37.5 22t-61 10q-39 0 -66 -13t-40.5 -29.5t-20.5 -46t-8 -48t-1 -50.5v-762q0 -74 29 -109.5t98 -35.5 q38 0 65 11.5t40 26.5t20 41.5t8 43t1 45.5v225h-166v217h432v-784h-228v86q-18 -20 -27 -29.5t-35 -29.5t-49.5 -30t-62 -19t-82.5 -9q-42 0 -82 7.5t-83.5 27.5t-75 52t-52 85.5t-20.5 122.5z" />
<glyph unicode="H" horiz-adv-x="980" d="M102 0v1446h267v-569h243v569h267v-1446h-267v662h-243v-662h-267z" />
<glyph unicode="I" horiz-adv-x="468" d="M102 0v1446h265v-1446h-265z" />
<glyph unicode="J" d="M4 264v195h246v-137q0 -25 0.5 -39t5.5 -36.5t14.5 -35t28.5 -22t47 -9.5q27 0 46 10.5t28 23.5t14 37t5.5 38.5t0.5 40.5v1116h269v-1118q0 -38 -1 -61t-8 -65t-20 -69.5t-40.5 -61.5t-65 -54t-97.5 -34t-135 -14q-95 0 -162.5 22t-105 63t-54 92.5t-16.5 117.5z" />
<glyph unicode="K" horiz-adv-x="937" d="M102 0v1446h271v-563l289 563h272l-328 -625l338 -821h-289l-282 707v-707h-271z" />
<glyph unicode="L" horiz-adv-x="768" d="M102 0v1446h265v-1227h393v-219h-658z" />
<glyph unicode="M" horiz-adv-x="1409" d="M102 0v1446h433l172 -1012l170 1012h428v-1446h-265l25 1253l-234 -1253h-249l-238 1253l21 -1253h-263z" />
<glyph unicode="N" horiz-adv-x="1024" d="M102 0v1446h342l261 -1061l-27 1061h244v-1446h-336l-258 1083l24 -1083h-250z" />
<glyph unicode="O" horiz-adv-x="980" d="M90 309v809q0 168 76 248q45 49 129 80t199 31q188 0 301 -91q53 -44 74.5 -106t21.5 -168v-803q0 -159 -78 -237q-98 -103 -317 -103q-95 0 -167 18t-117 48.5t-73 75t-38.5 92t-10.5 106.5zM356 354q0 -31 1.5 -50.5t9 -46t21 -42t40 -26.5t64.5 -11t64 12t39 27 t19.5 42t7.5 43.5t1 45.5v746q0 32 -1 49t-7.5 46t-19 44.5t-38.5 28t-63 12.5q-39 0 -66.5 -13t-41.5 -30t-21 -47t-8 -49t-1 -52v-729z" />
<glyph unicode="P" horiz-adv-x="937" d="M102 0v1448h537q40 0 72.5 -7t56.5 -18t42.5 -30t30.5 -36t20.5 -44.5t12.5 -46t6 -50t2.5 -48.5t0.5 -48v-188q0 -65 -3 -106t-13 -82.5t-29 -64.5t-51 -42.5t-78.5 -27t-112.5 -7.5h-225v-602h-269zM371 809h129q76 0 98.5 23.5t22.5 105.5v147q0 27 -0.5 39.5t-2.5 32 t-6.5 28t-13 20.5t-21 16.5t-31.5 8t-44 3.5h-131v-424z" />
<glyph unicode="Q" horiz-adv-x="980" d="M90 283v843q0 102 29.5 170.5t107.5 116.5q106 64 265 64q152 0 253 -62q76 -45 109 -113.5t33 -187.5v-813q0 -66 -7 -99t-32 -79l147 -152l-166 -161l-182 186q-39 -15 -86 -21q-43 -6 -86 -6q-183 0 -284 80t-101 234zM358 354q0 -34 1 -51.5t7.5 -45t19.5 -41 t38.5 -24t62.5 -10.5q28 0 48.5 6t34.5 14t23.5 26t14.5 31.5t7 41.5t2.5 45t0.5 53v709q0 25 -0.5 38t-3.5 36.5t-11.5 36.5t-21.5 27.5t-35.5 21t-53.5 6.5q-38 0 -65 -12t-40 -27.5t-20 -42t-8 -42.5t-1 -42v-754z" />
<glyph unicode="R" horiz-adv-x="980" d="M102 0v1448h533q42 0 77 -6.5t60.5 -16.5t45.5 -27.5t32.5 -33t21.5 -41t13.5 -43t6.5 -47.5t2.5 -46t0.5 -46v-156q0 -68 -10 -111.5t-35.5 -70t-56 -39.5t-84.5 -25q26 -7 45.5 -13.5t50 -25.5t50.5 -43.5t35 -68.5t15 -99v-294q0 -68 12.5 -116t49.5 -79h-293 q-39 69 -39 160v309q0 27 -0.5 40.5t-3 35t-7.5 32t-15 24.5t-24.5 20.5t-37 11t-51.5 4.5h-127v-637h-267zM369 844h139q43 0 69.5 10t37.5 33t13.5 42t2.5 54v137q0 34 -8 58t-17.5 35.5t-29 17.5t-32 7t-36.5 1h-139v-395z" />
<glyph unicode="S" horiz-adv-x="937" d="M78 299v211h266v-168q0 -28 0.5 -42.5t4 -38t11.5 -36t22 -26t37 -19.5t54 -6q28 0 48.5 6t34.5 13.5t23.5 25t14.5 31t7 41.5t2.5 45t0.5 53q0 77 -19 117.5t-71 75.5l-254 170q-97 66 -134.5 145t-37.5 195q0 102 20.5 174t84.5 125q101 86 290 86q51 0 99 -8.5 t98 -30.5t87.5 -56t61 -90t23.5 -127v-143h-264v104q0 28 -1 43t-7 38.5t-17.5 35.5t-34.5 21.5t-57 9.5q-60 0 -91.5 -31t-31.5 -113q0 -59 10 -94.5t25.5 -52.5t48.5 -39l262 -178q95 -69 137 -141q27 -46 33 -87.5t6 -140.5q0 -80 -1.5 -117.5t-12.5 -84t-33 -82.5 q-89 -144 -344 -144q-88 0 -159 17.5t-126.5 55.5t-85.5 103t-30 154z" />
<glyph unicode="T" d="M4 1237v209h801v-209h-266v-1237h-269v1237h-266z" />
<glyph unicode="U" horiz-adv-x="980" d="M98 332v1114h269v-1075q0 -32 1 -49t7.5 -45t18.5 -42.5t37 -26t61 -11.5q35 0 59.5 11.5t36.5 25.5t18 42.5t7 45.5t1 51v1073h269v-1120q0 -357 -398 -357q-188 0 -287.5 92.5t-99.5 270.5z" />
<glyph unicode="V" horiz-adv-x="854" d="M12 1446h283l141 -957l131 957h273l-273 -1446h-268z" />
<glyph unicode="W" horiz-adv-x="1449" d="M25 1446h274l145 -1090l158 1090h252l152 -1090l151 1090h270l-278 -1446h-281l-137 985l-158 -985h-284z" />
<glyph unicode="X" horiz-adv-x="980" d="M29 0l319 770l-285 676h291l138 -408l139 408h291l-289 -684l319 -762h-293l-170 500l-172 -500h-288z" />
<glyph unicode="Y" horiz-adv-x="854" d="M4 1446h281l145 -729l141 729h281l-289 -1018v-428h-270v444z" />
<glyph unicode="Z" horiz-adv-x="854" d="M47 0v168l461 1055h-402v223h703v-143l-471 -1078h465v-225h-756z" />
<glyph unicode="[" horiz-adv-x="681" d="M102 -352v1908h492v-184h-250v-1540h252v-184h-494z" />
<glyph unicode="\" horiz-adv-x="512" d="M25 1446h202l265 -1446h-201z" />
<glyph unicode="]" horiz-adv-x="681" d="M88 1372v184h494v-1908h-492v184h250v1540h-252z" />
<glyph unicode="^" horiz-adv-x="1492" d="M291 690l385 756h158l368 -756h-198l-254 531l-263 -531h-196z" />
<glyph unicode="_" horiz-adv-x="1024" d="M-20 -154h1064v-102h-1064v102z" />
<glyph unicode="`" horiz-adv-x="512" d="M31 1446h313l135 -270h-176z" />
<glyph unicode="a" d="M66 266v52.5t1 44.5t3 40.5t6 33.5t9.5 31.5t14.5 26t20 26t27 22.5t35 24t43 23l254 127q0 107 -2 117q-6 69 -84 69q-14 0 -25 -2t-19.5 -5t-14.5 -11t-10.5 -13.5t-7 -19.5t-4 -23t-2.5 -30t-1 -33.5v-40.5h-223q0 131 8.5 178.5t48.5 87.5q80 80 267 80 q112 0 186 -39q38 -19 65 -45.5t39 -54t16.5 -49.5t4.5 -43v-584q0 -131 7.5 -180.5t39.5 -75.5h-256q-26 29 -29 92q-25 -29 -40 -44t-41.5 -34.5t-58 -28t-71.5 -8.5q-43 0 -76.5 11.5t-55 27.5t-36.5 44t-22 49.5t-11 56t-4.5 52t-0.5 48.5zM303 276q0 -62 12.5 -88 t44.5 -26q49 0 117 59v307l-119 -77q-35 -24 -45 -58.5t-10 -116.5z" />
<glyph unicode="b" horiz-adv-x="854" d="M90 0v1448h244v-481q113 104 219 104q27 0 55.5 -7.5t58.5 -26t53.5 -45.5t38.5 -70.5t15 -96.5v-592q0 -63 -17 -111.5t-42 -75t-57.5 -43t-57.5 -21.5t-49 -5q-45 0 -82 11t-64.5 34t-39.5 36t-31 38v-96h-244zM332 324q0 -31 2.5 -51.5t12 -43t30.5 -34t55 -11.5 q27 0 46.5 11t29 24t14.5 36t5.5 35.5t0.5 33.5v440q0 17 -0.5 27.5t-5.5 30t-13.5 31t-26.5 21t-44 9.5q-30 0 -51.5 -10t-32 -22t-16 -34t-6 -34.5t-0.5 -34.5v-424z" />
<glyph unicode="c" d="M78 285v465q0 130 59 202q92 117 281 117q70 0 137 -19t111 -55q46 -39 66 -91t20 -128v-125h-242v127q0 16 -0.5 26.5t-5.5 29.5t-13.5 30.5t-26.5 21t-44 9.5q-35 0 -57.5 -14t-31 -40t-10.5 -44t-2 -45v-455q0 -21 0.5 -34t6 -35t15 -35t29 -23t46.5 -10q94 0 94 135 v121h242v-119q0 -317 -334 -317q-160 0 -248 71q-55 43 -73.5 100t-18.5 134z" />
<glyph unicode="d" horiz-adv-x="854" d="M80 313v480q0 96 29 155q31 63 88.5 93t109.5 30q34 0 64.5 -9t60.5 -29t44.5 -31.5t43.5 -36.5v483h242v-1448h-246l2 102q-20 -29 -33 -44t-38 -36.5t-57.5 -31.5t-74.5 -10q-70 0 -124.5 32t-79.5 78q-31 59 -31 223zM322 303q0 -21 0.5 -32.5t5.5 -30.5t14 -29.5 t28 -18.5t46 -8q102 0 102 127v451q0 121 -102 121q-27 0 -46 -9.5t-28 -21.5t-14 -33.5t-5.5 -34t-0.5 -34.5v-447z" />
<glyph unicode="e" d="M78 315v443q0 175 112 252q87 61 222 61q159 0 254 -92q71 -73 71 -209v-299h-418v-172q0 -19 0.5 -31.5t5.5 -33t14 -33t27 -22t44 -9.5q41 0 65 31q14 19 17.5 42t3.5 103h237v-84q0 -66 -19 -116.5t-49.5 -81t-73 -50t-85.5 -27t-92 -7.5q-175 0 -255.5 85.5 t-80.5 249.5zM322 643h174v129q0 105 -84 105q-90 0 -90 -105v-129z" />
<glyph unicode="f" horiz-adv-x="512" d="M23 887v162h110v184q0 45 11 80.5t26.5 57.5t42.5 38t47.5 24t53 12t49.5 4.5t45 0.5q20 0 86 -4v-199q-11 0 -32 1l-22 1q-63 0 -63 -71v-129h106v-162h-108v-887h-244v887h-108z" />
<glyph unicode="g" horiz-adv-x="854" d="M78 250v555q0 15 0.5 27.5t5 41.5t12 52t24 51t39 47t59 32t81.5 13q38 0 70.5 -8.5t61 -27t45 -31.5t42.5 -37v84h244v-1086q0 -33 -1 -53t-7.5 -59.5t-19 -65.5t-38.5 -58.5t-62.5 -52t-94.5 -33.5t-131 -14q-66 0 -118 11.5t-85.5 28t-57.5 44t-35.5 49.5t-18 56 t-7.5 51t-2 47h242q0 -41 10 -66q22 -45 84 -45q58 0 78 33.5t20 91.5v162q-19 -22 -32 -33.5t-40 -30.5t-62.5 -28.5t-78.5 -9.5q-58 0 -100.5 16t-66.5 40.5t-38 61.5t-18 70t-4 74zM319 291q0 -117 97 -117q100 0 100 119v463q0 20 -0.5 31.5t-6 32.5t-15 33t-29 22 t-47.5 10q-99 0 -99 -125v-469z" />
<glyph unicode="h" horiz-adv-x="854" d="M90 0v1448h240v-483q22 23 36 36t42 32t61.5 28.5t73.5 9.5q26 0 51.5 -5t57 -21.5t55 -42.5t39.5 -72.5t16 -106.5v-823h-242v745q0 22 -0.5 34.5t-5.5 33t-13.5 32t-26.5 20.5t-44 9q-96 0 -96 -112v-762h-244z" />
<glyph unicode="i" horiz-adv-x="425" d="M90 0v1049h246v-1049h-246zM90 1200v248h244v-248h-244z" />
<glyph unicode="j" horiz-adv-x="425" d="M-16 -152q32 -1 53 4t32 12.5t16 27.5t6 34t1 47v1078h244v-1149q0 -69 -14.5 -119t-36.5 -77t-58 -42.5t-67.5 -19.5t-75.5 -4q-65 0 -100 6v202zM92 1202v246h244v-246h-244z" />
<glyph unicode="k" d="M90 0v1446h242v-756l200 359h271l-268 -437l299 -612h-277l-225 535v-535h-242z" />
<glyph unicode="l" horiz-adv-x="425" d="M90 0v1446h246v-1446h-246z" />
<glyph unicode="m" horiz-adv-x="1280" d="M90 0v1049h246v-70q32 28 53.5 43.5t63.5 31t88 15.5q50 0 92.5 -19t62 -37.5t43.5 -47.5q38 34 64 53t73 35t103 16q92 0 151 -59q60 -60 60 -179v-831h-244v774q0 21 -0.5 32.5t-5 31.5t-13.5 30.5t-26.5 19.5t-42.5 9q-96 0 -96 -133v-764h-244v770q0 22 -0.5 34.5 t-5.5 33.5t-13.5 32.5t-26.5 21t-44 9.5q-94 0 -94 -125v-776h-244z" />
<glyph unicode="n" horiz-adv-x="854" d="M90 0v1049h248l-4 -78q25 24 40 36.5t42 29.5t58.5 24.5t70.5 7.5q108 0 168 -70q23 -26 34.5 -59.5t13 -56t1.5 -64.5v-819h-240v770q0 27 -2 45t-10 39t-26.5 32t-47.5 11t-49.5 -11t-30.5 -24.5t-15.5 -36.5t-6 -35.5t-0.5 -33.5v-756h-244z" />
<glyph unicode="o" d="M78 297v469q0 303 332 303q136 0 221 -57q60 -42 81 -101t21 -135v-504q0 -141 -86.5 -216.5t-249.5 -75.5q-66 0 -118 14t-85 34.5t-56.5 52.5t-34.5 58t-17.5 62t-7 53t-0.5 43zM322 256q0 -109 84 -109q25 0 42 8.5t25.5 19t13 28.5t5 28t0.5 27v533q0 36 -4.5 60.5 t-23.5 45.5t-54 21q-25 0 -43 -9.5t-26.5 -21.5t-13 -33t-5 -33t-0.5 -33v-532z" />
<glyph unicode="p" horiz-adv-x="854" d="M90 -360v1409h242v-80q32 27 55 44t70.5 36.5t95.5 19.5q95 0 162 -70q59 -67 59 -206v-555q0 -99 -35 -158q-54 -100 -180 -100q-47 0 -92.5 18.5t-68 35.5t-66.5 54v-448h-242zM334 295q0 -117 98 -117t98 109v485q0 115 -96 115q-100 0 -100 -121v-471z" />
<glyph unicode="q" horiz-adv-x="854" d="M78 229v572q0 54 12 97.5t29.5 71t42.5 47.5t46.5 29.5t47 15t37.5 6.5t24 1q49 0 94 -18t65.5 -34.5t47.5 -41.5v74h240v-1409h-242v450q-30 -29 -48 -44t-46.5 -33t-60.5 -25.5t-72 -7.5q-104 0 -160.5 70.5t-56.5 178.5zM322 293q0 -16 0.5 -26.5t5.5 -29t14.5 -29 t29 -19.5t46.5 -9q102 0 102 125v483q0 41 -19 66.5t-39 32t-40 6.5q-52 0 -80 -35q-20 -23 -20 -70v-495z" />
<glyph unicode="r" horiz-adv-x="598" d="M90 0v1049h244l-2 -134q19 34 35.5 56.5t44.5 47.5t68 37q37 11 83 11h8v-242q-51 17 -82 17q-33 0 -58.5 -9t-42 -21t-28 -34t-17 -38t-8 -43.5t-3 -41.5t-0.5 -39v-616h-242z" />
<glyph unicode="s" horiz-adv-x="768" d="M55 258v111h226q0 -48 0.5 -69.5t3 -52.5t8.5 -43.5t16.5 -26.5t27 -18.5t40.5 -4.5q94 0 94 114q0 51 -12 78t-60 60l-202 143q-37 27 -68 65q-17 19 -27.5 37.5t-20 57.5t-9.5 92q0 64 16.5 112.5t44.5 78t69.5 48t85.5 25t99 6.5q299 0 299 -242v-114h-211 q0 38 -0.5 56t-3 45t-7.5 38.5t-15 25t-25 18.5t-37 5q-17 0 -29 -2.5t-26.5 -11t-22.5 -29t-8 -51.5q0 -20 2.5 -33.5t19.5 -36.5t48 -45l223 -157q11 -8 36.5 -34t31.5 -36q34 -48 34 -164q0 -40 -0.5 -61t-7 -60.5t-17.5 -62.5t-35 -53t-57.5 -46t-86 -28t-119.5 -12 q-76 0 -133.5 15.5t-92 40.5t-56 62t-29 75t-7.5 85z" />
<glyph unicode="t" horiz-adv-x="555" d="M14 887v162h131v378h244v-378h146v-162h-148v-598q0 -59 21.5 -87t89.5 -28q8 0 21.5 1t21.5 1v-174q-48 -12 -129 -12q-84 0 -138 14.5t-81 46t-36.5 67.5t-9.5 91v678h-133z" />
<glyph unicode="u" horiz-adv-x="854" d="M90 258v791h244v-756q0 -21 0.5 -33t5.5 -32t13.5 -31t26.5 -20t44 -9q27 0 46 10t28 22.5t14 34.5t5.5 35.5t0.5 36.5v742h246v-1049h-246v84q-42 -34 -61 -48.5t-67 -34t-97 -19.5q-29 0 -57 7t-58 24t-52 50.5t-30 79.5q-6 33 -6 115z" />
<glyph unicode="v" horiz-adv-x="724" d="M2 1049h244l108 -727l125 727h244l-252 -1049h-238z" />
<glyph unicode="w" horiz-adv-x="1150" d="M8 1049h238l110 -693l123 693h199l110 -693l119 693h238l-238 -1049h-229l-103 623l-122 -623h-232z" />
<glyph unicode="x" horiz-adv-x="768" d="M8 0l228 569l-185 480h252l90 -351l94 351h236l-188 -480l225 -569h-262l-119 424l-119 -424h-252z" />
<glyph unicode="y" horiz-adv-x="724" d="M2 1049h242l135 -674l104 674h240l-240 -1123q-18 -85 -37.5 -136t-52 -87t-79.5 -50.5t-119 -14.5q-54 0 -162 18l35 192q45 -14 96 -14q29 0 51 16.5t33.5 40t17.5 48.5t7.5 41.5t0.5 19.5z" />
<glyph unicode="z" horiz-adv-x="724" d="M49 0v205l367 645h-328v199h578v-199l-365 -645h381v-205h-633z" />
<glyph unicode="{" horiz-adv-x="724" d="M78 526v160q34 5 54 10.5t42.5 17.5t34.5 31.5t23 51t15.5 78.5t4.5 112v187q0 53 0.5 78.5t4 66.5t11 65.5t22 53.5t36.5 53q25 27 56.5 45t58 27.5t75.5 14t77.5 5.5t94.5 2v-153q-127 -3 -165 -48t-38 -194v-143v-3q0 -76 -1 -112t-6.5 -93.5t-18 -86t-34.5 -62.5 t-58 -51.5t-86 -26.5v-12q33 -6 60.5 -17.5t47.5 -24t35.5 -35t25.5 -40.5t17 -50.5t10.5 -53.5t5 -62t2 -64t0.5 -70v-3v-149q0 -64 4.5 -103t16 -70t35.5 -46t58 -22.5t89 -8.5v-154q-66 1 -94.5 2t-77.5 5.5t-75.5 14t-58 27.5t-56.5 45q-51 56 -62.5 123.5t-11.5 212.5 v164q0 77 -7 129t-18.5 84.5t-35 51t-47.5 26.5t-66 14z" />
<glyph unicode="|" horiz-adv-x="468" d="M152 -512v2048h163v-2048h-163z" />
<glyph unicode="}" horiz-adv-x="724" d="M37 -219q127 3 165 48t38 194v143v3q0 51 0.5 75.5t2 67.5t5 64.5t10.5 55t17 51.5t25.5 40.5t35.5 35.5t47 24t61 17v12q-33 6 -60.5 17.5t-47.5 24t-35.5 35t-25.5 40.5t-17 50.5t-10.5 53.5t-5 62t-2 64t-0.5 70v3v150q0 64 -4.5 103t-16 70t-35.5 46t-58 22.5 t-89 8.5v153q66 -1 94.5 -2t77.5 -5.5t75.5 -14t58 -27.5t56.5 -45q51 -56 62.5 -123.5t11.5 -212.5v-164q0 -78 7 -130t18.5 -84t35 -50.5t47.5 -26.5t66 -14v-160q-34 -5 -54 -10.5t-42.5 -17.5t-34.5 -31.5t-23 -51t-15.5 -78.5t-4.5 -112v-186q0 -86 -2.5 -128.5 t-19.5 -96.5t-52 -93q-25 -27 -56.5 -45t-58 -27.5t-75.5 -14t-77.5 -5.5t-94.5 -2v154z" />
<glyph unicode="~" horiz-adv-x="1492" d="M254 592q24 33 42.5 55t53.5 53t79.5 47.5t96.5 16.5q37 0 76 -9.5t67.5 -21t84.5 -37.5q90 -42 132.5 -57.5t76.5 -15.5q97 0 198 127l78 -148q-56 -71 -129 -116.5t-152 -45.5q-40 0 -82.5 13.5t-119.5 50.5q-97 47 -140.5 63.5t-85.5 16.5q-29 0 -49.5 -5.5t-45 -26 t-41.5 -39.5t-58 -67z" />
<glyph unicode="&#xa1;" horiz-adv-x="468" d="M72 1176v270h243v-270h-243zM78 0v641l39 416h159l33 -404v-653h-231z" />
<glyph unicode="&#xa2;" d="M80 279v495q0 133 74 205q69 71 215 88v170h102v-170q119 -14 180 -55q101 -66 101 -228v-135h-242v129q0 21 -2 34.5t-9.5 34.5t-28 32.5t-52.5 11.5q-28 0 -48 -10t-29.5 -22t-14.5 -33t-6 -33.5t-1 -32.5v-479q0 -121 101 -121q26 0 44 8.5t26.5 19t13.5 29t5.5 29.5 t0.5 30v140h240v-137q0 -60 -14 -110t-44.5 -93t-86.5 -69.5t-134 -31.5v-202h-102v202q-118 16 -179 58q-110 74 -110 246z" />
<glyph unicode="&#xa3;" horiz-adv-x="980" d="M45 145q0 83 55 130t125 47q47 0 154 -39q18 41 18 71q0 77 -73 215h-230v125h176q-38 86 -55 129t-33 113t-16 141q0 197 117 287q97 76 239 76q42 0 81.5 -5.5t93.5 -27t93 -57.5t67 -105t28 -162v-100h-236q0 147 -8 176q-22 84 -106 84q-43 0 -70.5 -18t-38.5 -50.5 t-14.5 -57.5t-3.5 -60q0 -70 18 -133q15 -63 88 -230h217v-125h-174q18 -56 18 -108q0 -102 -61 -244q85 -51 129 -51q84 0 84 127l4 110h205v-153q0 -140 -62.5 -207.5t-168.5 -67.5q-114 0 -273 105q-23 -23 -39 -36.5t-43 -32t-58.5 -27.5t-66.5 -9q-72 0 -126 44.5 t-54 125.5zM162 139q0 -22 15 -35.5t38 -13.5t37.5 10t52.5 50q-17 15 -43.5 29t-46.5 14t-36.5 -14.5t-16.5 -39.5z" />
<glyph unicode="&#xa4;" horiz-adv-x="1366" d="M86 221l156 154q-37 58 -54 89t-34 94t-17 138q0 61 10 113t29 92.5t32.5 62.5t33.5 50l-154 153l123 123l154 -153q42 29 73.5 47t100 37.5t143.5 19.5q57 0 101.5 -7t85.5 -24.5t63.5 -31t66.5 -41.5l156 153l123 -123l-154 -153q29 -48 41.5 -69.5t30.5 -62.5 t24.5 -84t6.5 -98q0 -78 -16.5 -141.5t-33.5 -94t-55 -89.5l156 -158l-125 -121l-154 156q-60 -37 -92.5 -54.5t-93 -32.5t-135.5 -15q-72 0 -134 17t-94.5 34.5t-84.5 52.5l-156 -156zM301 702q0 -92 34 -168.5t89 -124.5t121 -74t133 -26q166 0 275.5 111t109.5 276 q0 90 -34 165t-88.5 122t-119.5 72.5t-131 25.5q-172 0 -280.5 -111.5t-108.5 -267.5z" />
<glyph unicode="&#xa5;" horiz-adv-x="854" d="M25 1364h272l129 -649l123 649h278l-186 -643h164v-152h-205l-35 -116h240v-146h-246v-307h-268v307h-246v146h242l-33 116h-209v152h166z" />
<glyph unicode="&#xa6;" horiz-adv-x="468" d="M154 -358v716h163v-716h-163zM154 666v716h163v-716h-163z" />
<glyph unicode="&#xa7;" horiz-adv-x="894" d="M29 637q0 80 38.5 142.5t127.5 156.5q-45 54 -61.5 91t-16.5 110q0 30 0.5 47t3.5 48t9 51t18.5 47.5t29.5 45t43.5 37.5t60.5 31t81 18.5t104 7.5q70 0 125 -11.5t90 -27.5t60 -43t36.5 -48.5t18 -54.5t7.5 -50t1 -45v-141h-234v116q0 21 -1 33.5t-6.5 32t-16.5 31 t-33 20t-53 8.5q-101 0 -101 -110q0 -53 23.5 -85t108.5 -104l243 -211q59 -50 93 -108t34 -140q0 -49 -11 -90.5t-38 -81.5t-48.5 -65t-64.5 -70q31 -34 44 -50.5t28 -48t20 -71.5t5 -102q0 -165 -99 -244q-88 -67 -256 -67q-109 0 -194 34q-52 22 -86 53.5t-48 69.5 t-18 65.5t-4 63.5v174h238v-108q0 -35 0.5 -51t6 -42.5t16.5 -38.5t33 -22t54 -10q105 0 105 113q0 44 -1.5 61.5t-13 42.5t-32 45.5t-64.5 57.5l-258 219q-51 44 -84 86.5t-45 80t-15 57t-3 44.5zM250 684q0 -19 2.5 -30t18.5 -36t49.5 -56.5t97.5 -85.5t160 -128 q69 79 69 131q0 42 -33.5 83t-99.5 95q-13 12 -98 81t-101 83q-33 -44 -49 -74.5t-16 -62.5z" />
<glyph unicode="&#xa8;" horiz-adv-x="512" d="M-53 1233v254h243v-254h-243zM322 1233v254h243v-254h-243z" />
<glyph unicode="&#xa9;" horiz-adv-x="1705" d="M125 725q0 202 98 369.5t265 262.5t364 95q153 0 288.5 -56.5t232 -154t152.5 -233t56 -287.5q0 -145 -55 -278t-150.5 -232t-232 -158t-291.5 -59q-143 0 -275.5 54t-232.5 148.5t-159.5 232.5t-59.5 296zM190 725q0 -140 53.5 -264.5t143.5 -212t212 -138.5t255 -51 q184 0 336.5 89t239 241t86.5 332q0 183 -85.5 335.5t-237.5 241t-337 88.5t-338.5 -90t-240.5 -241.5t-87 -329.5zM383 721q0 215 138.5 353t344.5 138q79 0 144 -17.5t114 -51t73.5 -56t57.5 -59.5l-114 -108q-33 34 -53 52t-55 41.5t-75.5 34.5t-89.5 11 q-131 0 -228 -90.5t-97 -245.5q0 -146 96 -237t229 -91q54 0 99 12.5t80 37t52 40.5t42 43l114 -100q-157 -186 -385 -186q-146 0 -258.5 66.5t-170.5 175t-58 237.5z" />
<glyph unicode="&#xaa;" horiz-adv-x="468" d="M45 1034q0 24 0.5 39.5t6 32.5t9.5 26t20 23t26.5 21.5t41.5 23.5t52.5 26.5t70.5 33.5q0 65 -6.5 82.5t-38.5 17.5q-23 0 -33.5 -12.5t-12 -28.5t-1.5 -55h-125q0 81 8 104q14 45 58.5 68.5t103.5 23.5q28 0 55.5 -5t59 -18t51 -42t19.5 -72v-356q0 -77 22 -107h-141 q-12 22 -17 53q-18 -21 -29 -31.5t-32 -19t-49 -8.5q-34 0 -58 11.5t-35.5 25.5t-17.5 42.5t-7 47t-1 53.5zM178 1028q0 -41 6 -56.5t27 -15.5q11 0 30 11t29 22v162q-68 -45 -75 -55q-17 -15 -17 -68z" />
<glyph unicode="&#xab;" horiz-adv-x="641" d="M63 451v188l209 199v-199l-82 -92l82 -82v-205zM360 453v192l209 193v-199l-86 -92l86 -84v-203z" />
<glyph unicode="&#xac;" horiz-adv-x="1366" d="M0 516v162h1366v-678h-164v516h-1202z" />
<glyph unicode="&#xad;" horiz-adv-x="681" d="M68 446v203h548v-203h-548z" />
<glyph unicode="&#xae;" horiz-adv-x="1705" d="M125 723q0 154 59 290.5t157.5 232t232 151t278.5 55.5q151 0 286.5 -56.5t233 -153.5t154.5 -232.5t57 -288.5q0 -144 -55 -277t-150.5 -232.5t-233 -158.5t-292.5 -59q-141 0 -273 54t-232.5 148t-161 231.5t-60.5 295.5zM190 723q0 -184 89.5 -337t242 -240t332.5 -87 q140 0 264.5 54t211.5 144t137.5 211.5t50.5 252.5q0 183 -86 335t-239 241t-341 89q-133 0 -255 -51.5t-211.5 -139.5t-142.5 -211.5t-53 -260.5zM545 268v920h299q152 0 215 -23q71 -25 109 -84.5t38 -128.5q0 -22 -3.5 -43t-15.5 -48.5t-31.5 -50t-55 -43t-82.5 -32.5 q64 -27 91 -69.5t40 -122.5q15 -107 28 -162.5t42 -112.5h-187q-17 34 -25 65.5t-20 110.5q-3 16 -4 25q-7 42 -11 65.5t-12.5 49.5t-15.5 38.5t-23 26t-32 18t-44.5 9t-58.5 5.5t-77 1v-414h-164zM711 813h135q24 0 38.5 0.5t41.5 4t44 11.5t35.5 21.5t27.5 36.5t9 53 q0 78 -65 109q-23 8 -51.5 10t-110.5 2h-104v-248z" />
<glyph unicode="&#xaf;" horiz-adv-x="512" d="M-16 1208v166h544v-166h-544z" />
<glyph unicode="&#xb0;" horiz-adv-x="724" d="M31 1217q0 136 97 232.5t234 96.5q136 0 233 -97t97 -232q0 -137 -97 -233.5t-233 -96.5q-138 0 -234.5 96.5t-96.5 233.5zM201 1221q0 -68 47 -115t114 -47q68 0 115 47.5t47 114.5t-48 114t-114 47q-67 0 -114 -46.5t-47 -114.5z" />
<glyph unicode="&#xb1;" horiz-adv-x="1024" d="M63 0v162h898v-162h-898zM63 700v162h371v367h162v-367h365v-162h-365v-370h-162v370h-371z" />
<glyph unicode="&#xb2;" horiz-adv-x="598" d="M43 459q0 68 9.5 123t22.5 92t39.5 73.5t48.5 59t60 57.5q65 59 88.5 80.5t43 47t21 37.5t1.5 40v102q0 74 -74 74q-51 0 -68.5 -21.5t-17.5 -60.5v-112h-156v114q0 31 2 51t18 53t46 56q60 49 170 49q140 0 201 -71q43 -49 43 -127v-119q0 -71 -27 -114.5t-117 -123.5 q-119 -110 -143.5 -140.5t-28.5 -76.5h326v-143h-508z" />
<glyph unicode="&#xb3;" horiz-adv-x="598" d="M51 635v113h164v-99q0 -15 1.5 -24t8 -22.5t24 -20.5t44.5 -7q52 0 69 16t17 52v133q0 20 -1.5 35t-7 26.5t-10 19t-17.5 13t-22 8t-31.5 4t-38 1.5h-48.5v114q39 0 57.5 0.5t43 3.5t34 9.5t20.5 18t14 29.5t3 44v88q-2 19 -10 30.5t-22 16t-22.5 5.5t-23.5 1 q-13 0 -33 -4q-47 -10 -47 -57v-97h-158v115q0 41 15 73t41.5 49.5t52 29.5t58 16t47 5t30.5 1q32 0 62.5 -4.5t63.5 -17t57 -32.5t39.5 -53.5t15.5 -76.5v-105q0 -27 -2.5 -43.5t-11.5 -38t-32.5 -36t-60.5 -21.5q67 -12 89 -44.5t22 -110.5v-136q0 -62 -24.5 -106t-65 -65 t-78.5 -29.5t-78 -8.5q-115 0 -181.5 52t-66.5 137z" />
<glyph unicode="&#xb4;" horiz-adv-x="512" d="M29 1210l133 275h319q-97 -99 -260 -275h-192z" />
<glyph unicode="&#xb5;" horiz-adv-x="854" d="M90 -360v1409h244v-789q0 -12 3 -25t11.5 -29.5t28.5 -27t49 -10.5q26 0 44.5 10t27.5 22.5t14 34.5t5.5 35.5t0.5 36.5v742h246v-1049h-246v84q-41 -88 -108 -88q-18 0 -33 5t-22.5 10.5t-20.5 17.5v-389h-244z" />
<glyph unicode="&#xb6;" horiz-adv-x="1366" d="M178 1036q0 27 3 55.5t15 70t30.5 79t53.5 76t81.5 66.5t116.5 45.5t155 17.5h471v-111h-70v-1675h-119v1675h-297v-1675h-116v993q-50 10 -78.5 18t-67.5 30.5t-73 58.5q-105 108 -105 276z" />
<glyph unicode="&#xb7;" horiz-adv-x="382" d="M72 442v265h241v-265h-241z" />
<glyph unicode="&#xb8;" horiz-adv-x="512" d="M51 -313q46 -4 78 -4q98 0 98 61q0 48 -73 59v252q6 0 22.5 -1t22.5 -1t21.5 1t21.5 1v-161q96 0 157 -33t62 -107q0 -47 -25.5 -79.5t-67 -46t-75 -18.5t-68.5 -5q-94 0 -174 20v62z" />
<glyph unicode="&#xb9;" horiz-adv-x="598" d="M82 1083v136q57 13 104.5 42.5t66.5 50t42 50.5h113v-903h-166v680q-15 -12 -27 -18.5t-46 -17.5t-87 -20z" />
<glyph unicode="&#xba;" horiz-adv-x="468" d="M51 1034v258q0 51 17 86q41 80 172 80q50 0 86.5 -14t53.5 -32t26.5 -46t10.5 -42.5t1 -35.5v-264q0 -41 -10 -74q-20 -50 -70 -73t-105 -23q-50 0 -86 14t-54 32.5t-28 46.5t-12 46t-2 41zM190 1020q0 -16 1 -24.5t4.5 -20.5t13 -17.5t24.5 -5.5q46 0 46 66v282 q0 21 -1.5 33.5t-12.5 25.5t-32 13q-43 0 -43 -69v-283z" />
<glyph unicode="&#xbb;" horiz-adv-x="641" d="M72 260v199l86 92l-86 84v203l209 -193v-192zM367 260v199l82 92l-82 82v205l208 -191v-188z" />
<glyph unicode="&#xbc;" horiz-adv-x="1449" d="M82 1083v136q44 10 80.5 27.5t62.5 40.5t40 39t30 38h113v-905h-166v680q-18 -12 -27.5 -18t-45 -17.5t-87.5 -20.5zM389 -47l545 1511l129 -47l-545 -1507zM895 170v131l260 608h195v-604h53v-135h-53v-170h-154v170h-301zM1038 305h158l8 410z" />
<glyph unicode="&#xbd;" horiz-adv-x="1449" d="M82 1083v134q44 10 80.5 27.5t62.5 40.5t40 39t30 38h113v-905h-166v682q-16 -13 -27 -19.5t-46 -17.5t-87 -19zM354 -47l543 1509l129 -47l-543 -1507zM895 0q0 84 12 146.5t40 110t54 77t74 72.5q115 102 135.5 128.5t20.5 75.5v103q0 20 -4 34t-21.5 26.5t-48.5 12.5 q-52 0 -70 -21t-18 -60v-113h-156v115q0 31 2 50.5t18 52.5t46 56q60 49 172 49q140 0 201 -71q43 -49 43 -127v-119q0 -71 -27 -114.5t-117 -123.5q-120 -110 -145 -140.5t-29 -76.5h328v-143h-510z" />
<glyph unicode="&#xbe;" horiz-adv-x="1449" d="M51 635v113h164v-99q0 -15 1.5 -24t8 -22.5t24 -20.5t44.5 -7q52 0 69 16t17 52v133q0 20 -1.5 35t-7 26.5t-10 19t-17.5 13t-22 8t-31.5 4t-38 1.5h-48.5v114q39 0 57.5 0.5t43 3.5t34 9.5t20.5 18t14 29.5t3 44v88q-2 19 -10 30.5t-22 16t-22.5 5.5t-23.5 1 q-13 0 -33 -4q-47 -10 -47 -57v-97h-158v115q0 41 15 73t41.5 49.5t52 29.5t58 16t47 5t30.5 1q32 0 62.5 -4.5t63.5 -17t57 -32.5t39.5 -53.5t15.5 -76.5v-105q0 -27 -2.5 -43.5t-11.5 -38t-32.5 -36t-60.5 -21.5q67 -12 89 -44.5t22 -110.5v-136q0 -62 -24.5 -106t-65 -65 t-78.5 -29.5t-78 -8.5q-115 0 -181.5 52t-66.5 137zM444 -47l543 1509l129 -45l-543 -1507zM895 170v131l260 606h195v-602h53v-135h-53v-170h-154v170h-301zM1038 305h158l8 408z" />
<glyph unicode="&#xbf;" horiz-adv-x="854" d="M57 297q0 81 2 124t13.5 81t23 58t43.5 67l103 147q66 97 78 134t12 149h231q0 -138 -9.5 -180t-61.5 -123l-136 -209q-41 -64 -49 -88.5t-8 -79.5v-105q0 -70 22 -97.5t68 -27.5q14 0 24 1t26 7t26.5 17t18.5 33t8 53v240h227v-152q0 -67 -2.5 -103t-19.5 -94t-50 -88.5 t-99.5 -54.5t-162.5 -24q-53 0 -97.5 7t-76.5 17.5t-57 29t-41 35t-27 42.5t-16.5 44.5t-8.5 48.5t-3.5 46t-0.5 45zM324 1180v266h239v-266h-239z" />
<glyph unicode="&#xc0;" horiz-adv-x="894" d="M20 0l281 1446h305l271 -1446h-271l-35 236h-245l-39 -236h-267zM131 1833h313l136 -270h-177zM358 459h185l-88 620z" />
<glyph unicode="&#xc1;" horiz-adv-x="894" d="M20 0l281 1446h305l271 -1446h-271l-35 236h-245l-39 -236h-267zM322 1563l129 274h319l-260 -274h-188zM358 459h185l-88 620z" />
<glyph unicode="&#xc2;" horiz-adv-x="894" d="M20 0l281 1446h305l271 -1446h-271l-35 236h-245l-39 -236h-267zM137 1563l176 270h265l176 -270h-215l-90 147l-99 -147h-213zM358 459h185l-88 620z" />
<glyph unicode="&#xc3;" horiz-adv-x="894" d="M20 0l281 1446h305l271 -1446h-271l-35 236h-245l-39 -236h-267zM115 1561q1 43 3.5 67t17.5 64.5t42 68.5q54 58 135 58q38 0 70 -10t115 -46q74 -32 100 -32q52 0 66 84h131q-1 -27 -1.5 -44t-4.5 -47t-11 -50.5t-20 -45t-30.5 -39.5t-45 -25t-61.5 -10q-32 0 -68.5 12 t-118.5 46q-10 4 -23 9.5t-19 8t-14 5.5t-11 4.5t-8 3t-7.5 1.5t-6 0.5t-7.5 0.5q-23 0 -40 -8t-27 -23.5t-14.5 -26t-8.5 -26.5h-133zM358 459h185l-88 620z" />
<glyph unicode="&#xc4;" horiz-adv-x="894" d="M20 0l281 1446h305l271 -1446h-271l-35 236h-245l-39 -236h-267zM141 1563v247h240v-247h-240zM358 459h185l-88 620zM553 1563v249h240v-249h-240z" />
<glyph unicode="&#xc5;" horiz-adv-x="894" d="M20 0l281 1446h305l271 -1446h-271l-35 236h-245l-39 -236h-267zM279 1698q0 77 54 130.5t128 53.5q76 0 130 -53.5t54 -130.5q0 -74 -54 -128t-130 -54q-75 0 -128.5 53.5t-53.5 128.5zM358 459h185l-88 620zM377 1696q0 -35 24.5 -59.5t59.5 -24.5t59.5 24.5t24.5 59.5 t-25 59.5t-59 24.5t-59 -24.5t-25 -59.5z" />
<glyph unicode="&#xc6;" horiz-adv-x="1449" d="M6 0l537 1446h860v-225h-461v-332h434v-217h-434v-449h463v-223h-729v299h-283l-100 -299h-287zM465 518h211v615z" />
<glyph unicode="&#xc7;" horiz-adv-x="937" d="M90 307l2 787q0 50 1.5 76t7.5 64.5t21.5 69t41.5 58.5q104 115 323 115q81 0 145.5 -14t105 -34t69.5 -53t43 -59.5t21.5 -65.5t8.5 -58.5t1 -51.5v-223h-265v184q0 88 -26 129t-107 41q-71 0 -98 -39t-27 -119v-774q0 -25 1 -40.5t7.5 -42t19 -41.5t38.5 -27.5 t63 -12.5q31 0 54 6t37 20.5t22 27.5t11.5 38t4 40.5t0.5 45.5v189h265v-205q0 -102 -18 -162.5t-68 -107.5q-39 -37 -92.5 -59t-89.5 -28t-89 -10v-84q216 0 219 -139q0 -38 -18 -67t-43.5 -44t-60.5 -24t-60.5 -11.5t-52.5 -2.5q-94 0 -174 20v62q58 -5 78 -5q98 0 98 62 q0 47 -74 59v176q-85 9 -147 29t-100 48t-60.5 69t-30.5 85t-8 103z" />
<glyph unicode="&#xc8;" horiz-adv-x="854" d="M102 0v1448h701v-221h-434v-340h407v-219h-407v-445h452v-223h-719zM109 1833h313l135 -270h-176z" />
<glyph unicode="&#xc9;" horiz-adv-x="854" d="M102 0v1448h701v-221h-434v-340h407v-219h-407v-445h452v-223h-719zM299 1563l129 274h320l-261 -274h-188z" />
<glyph unicode="&#xca;" horiz-adv-x="854" d="M102 0v1448h701v-221h-434v-340h407v-219h-407v-445h452v-223h-719zM115 1563l176 270h264l176 -270h-215l-90 147l-98 -147h-213z" />
<glyph unicode="&#xcb;" horiz-adv-x="854" d="M102 0v1448h701v-221h-434v-340h407v-219h-407v-445h452v-223h-719zM137 1563v247h240v-247h-240zM549 1563v249h239v-249h-239z" />
<glyph unicode="&#xcc;" horiz-adv-x="468" d="M-82 1833h313l136 -270h-177zM102 0v1446h265v-1446h-265z" />
<glyph unicode="&#xcd;" horiz-adv-x="468" d="M102 0v1446h265v-1446h-265zM109 1563l129 274h319l-260 -274h-188z" />
<glyph unicode="&#xce;" horiz-adv-x="468" d="M-76 1563l176 270h265l176 -270h-215l-90 147l-99 -147h-213zM102 0v1446h265v-1446h-265z" />
<glyph unicode="&#xcf;" horiz-adv-x="468" d="M-90 1563v247h240v-247h-240zM102 0v1446h265v-1446h-265zM322 1563v249h239v-249h-239z" />
<glyph unicode="&#xd0;" horiz-adv-x="980" d="M0 684v150h102v612h430q35 0 54.5 -0.5t54.5 -5t59.5 -13.5t55 -27t55.5 -44q52 -54 69 -122t17 -169v-676q0 -49 -2.5 -85.5t-11.5 -79t-24.5 -73.5t-43 -61t-65.5 -48.5t-94 -30t-126 -11.5h-428v684h-102zM369 211q148 0 168 4q27 5 46.5 18t29 26.5t14.5 36.5t5.5 36 t0.5 35v720q0 93 -33.5 120.5t-126.5 27.5h-104v-401h159v-150h-159v-473z" />
<glyph unicode="&#xd1;" horiz-adv-x="1024" d="M102 0v1446h342l261 -1061l-27 1061h244v-1446h-336l-258 1083l24 -1083h-250zM178 1561q1 41 4 66.5t18 65.5t42 68q54 58 135 58q38 0 69.5 -10t114.5 -46q74 -32 101 -32q23 0 37.5 15.5t19 30t8.5 38.5h131q-1 -27 -1.5 -44t-4.5 -47t-11 -50.5t-20 -45t-30.5 -39.5 t-45 -25t-61.5 -10q-23 0 -51.5 7.5t-52.5 17t-82 33.5q-84 32 -97 33q-23 0 -40 -8t-27 -23.5t-14.5 -26t-8.5 -26.5h-133z" />
<glyph unicode="&#xd2;" horiz-adv-x="980" d="M90 309v809q0 168 76 248q45 49 129 80t199 31q188 0 301 -91q53 -44 74.5 -106t21.5 -168v-803q0 -159 -78 -237q-98 -103 -317 -103q-95 0 -167 18t-117 48.5t-73 75t-38.5 92t-10.5 106.5zM172 1833h313l136 -270h-177zM356 354q0 -31 1.5 -50.5t9 -46t21 -42 t40 -26.5t64.5 -11t64 12t39 27t19.5 42t7.5 43.5t1 45.5v746q0 32 -1 49t-7.5 46t-19 44.5t-38.5 28t-63 12.5q-39 0 -66.5 -13t-41.5 -30t-21 -47t-8 -49t-1 -52v-729z" />
<glyph unicode="&#xd3;" horiz-adv-x="980" d="M90 309v809q0 168 76 248q45 49 129 80t199 31q188 0 301 -91q53 -44 74.5 -106t21.5 -168v-803q0 -159 -78 -237q-98 -103 -317 -103q-95 0 -167 18t-117 48.5t-73 75t-38.5 92t-10.5 106.5zM356 354q0 -31 1.5 -50.5t9 -46t21 -42t40 -26.5t64.5 -11t64 12t39 27 t19.5 42t7.5 43.5t1 45.5v746q0 32 -1 49t-7.5 46t-19 44.5t-38.5 28t-63 12.5q-39 0 -66.5 -13t-41.5 -30t-21 -47t-8 -49t-1 -52v-729zM362 1563l130 274h319l-260 -274h-189z" />
<glyph unicode="&#xd4;" horiz-adv-x="980" d="M90 309v809q0 168 76 248q45 49 129 80t199 31q188 0 301 -91q53 -44 74.5 -106t21.5 -168v-803q0 -159 -78 -237q-98 -103 -317 -103q-95 0 -167 18t-117 48.5t-73 75t-38.5 92t-10.5 106.5zM178 1563l176 270h264l177 -270h-215l-91 147l-98 -147h-213zM356 354 q0 -31 1.5 -50.5t9 -46t21 -42t40 -26.5t64.5 -11t64 12t39 27t19.5 42t7.5 43.5t1 45.5v746q0 32 -1 49t-7.5 46t-19 44.5t-38.5 28t-63 12.5q-39 0 -66.5 -13t-41.5 -30t-21 -47t-8 -49t-1 -52v-729z" />
<glyph unicode="&#xd5;" horiz-adv-x="980" d="M90 309v809q0 168 76 248q45 49 129 80t199 31q188 0 301 -91q53 -44 74.5 -106t21.5 -168v-803q0 -159 -78 -237q-98 -103 -317 -103q-95 0 -167 18t-117 48.5t-73 75t-38.5 92t-10.5 106.5zM156 1561q1 43 3.5 67t17.5 64.5t42 68.5q54 58 135 58q38 0 70 -10t115 -46 q74 -32 100 -32q52 0 66 84h131q-1 -27 -1.5 -44t-4.5 -47t-11 -50.5t-20 -45t-30.5 -39.5t-45 -25t-61.5 -10q-32 0 -68.5 12t-118.5 46q-10 4 -23 9.5t-19 8t-14 5.5t-11 4.5t-8 3t-7.5 1.5t-6 0.5t-7.5 0.5q-23 0 -40 -8t-27 -23.5t-14.5 -26t-8.5 -26.5h-133zM356 354 q0 -31 1.5 -50.5t9 -46t21 -42t40 -26.5t64.5 -11t64 12t39 27t19.5 42t7.5 43.5t1 45.5v746q0 32 -1 49t-7.5 46t-19 44.5t-38.5 28t-63 12.5q-39 0 -66.5 -13t-41.5 -30t-21 -47t-8 -49t-1 -52v-729z" />
<glyph unicode="&#xd6;" horiz-adv-x="980" d="M90 309v809q0 168 76 248q45 49 129 80t199 31q188 0 301 -91q53 -44 74.5 -106t21.5 -168v-803q0 -159 -78 -237q-98 -103 -317 -103q-95 0 -167 18t-117 48.5t-73 75t-38.5 92t-10.5 106.5zM170 1563v247h240v-247h-240zM356 354q0 -31 1.5 -50.5t9 -46t21 -42 t40 -26.5t64.5 -11t64 12t39 27t19.5 42t7.5 43.5t1 45.5v746q0 32 -1 49t-7.5 46t-19 44.5t-38.5 28t-63 12.5q-39 0 -66.5 -13t-41.5 -30t-21 -47t-8 -49t-1 -52v-729zM582 1563v249h239v-249h-239z" />
<glyph unicode="&#xd7;" horiz-adv-x="1024" d="M88 289l311 311l-311 307l115 113l311 -307l307 307l115 -113l-307 -307l307 -311l-115 -115l-307 307l-311 -307z" />
<glyph unicode="&#xd8;" horiz-adv-x="980" d="M68 41l65 127q-39 78 -39 156v809q0 34 2 56t11 58.5t33 70.5t61 66q106 93 280 93q167 0 277 -78l39 78l118 -60l-67 -131q39 -66 39 -147v-826q0 -85 -28 -149.5t-68.5 -100.5t-95.5 -58t-100 -29t-91 -7q-99 0 -161.5 24t-113.5 64l-41 -80zM365 330q0 -21 0.5 -31.5 t3.5 -31.5t11 -33t20.5 -25.5t34.5 -20t52 -6.5q38 0 64.5 11.5t39.5 26.5t20.5 41t8.5 43t1 44v475zM365 623l256 493q0 25 -1 39.5t-7 39t-18 38t-36 24.5t-59 11q-39 0 -66 -12t-40 -27t-20 -43.5t-8 -46t-1 -49.5v-467z" />
<glyph unicode="&#xd9;" horiz-adv-x="980" d="M98 332v1114h269v-1075q0 -32 1 -49t7.5 -45t18.5 -42.5t37 -26t61 -11.5q35 0 59.5 11.5t36.5 25.5t18 42.5t7 45.5t1 51v1073h269v-1120q0 -357 -398 -357q-188 0 -287.5 92.5t-99.5 270.5zM172 1833h313l136 -270h-177z" />
<glyph unicode="&#xda;" horiz-adv-x="980" d="M98 332v1114h269v-1075q0 -32 1 -49t7.5 -45t18.5 -42.5t37 -26t61 -11.5q35 0 59.5 11.5t36.5 25.5t18 42.5t7 45.5t1 51v1073h269v-1120q0 -357 -398 -357q-188 0 -287.5 92.5t-99.5 270.5zM362 1563l130 274h319l-260 -274h-189z" />
<glyph unicode="&#xdb;" horiz-adv-x="980" d="M98 332v1114h269v-1075q0 -32 1 -49t7.5 -45t18.5 -42.5t37 -26t61 -11.5q35 0 59.5 11.5t36.5 25.5t18 42.5t7 45.5t1 51v1073h269v-1120q0 -357 -398 -357q-188 0 -287.5 92.5t-99.5 270.5zM178 1563l176 270h264l177 -270h-215l-91 147l-98 -147h-213z" />
<glyph unicode="&#xdc;" horiz-adv-x="980" d="M98 332v1114h269v-1075q0 -32 1 -49t7.5 -45t18.5 -42.5t37 -26t61 -11.5q35 0 59.5 11.5t36.5 25.5t18 42.5t7 45.5t1 51v1073h269v-1120q0 -357 -398 -357q-188 0 -287.5 92.5t-99.5 270.5zM172 1563v247h240v-247h-240zM584 1563v249h239v-249h-239z" />
<glyph unicode="&#xdd;" horiz-adv-x="854" d="M4 1446h281l145 -729l141 729h281l-289 -1018v-428h-270v444zM299 1563l129 274h320l-261 -274h-188z" />
<glyph unicode="&#xde;" horiz-adv-x="937" d="M102 0v1448h269v-242h268q40 0 72.5 -7t56.5 -18t42.5 -30t30.5 -35.5t20.5 -44t12.5 -46t6 -50t2.5 -48.5t0.5 -48v-189q0 -65 -3 -106t-13 -82.5t-29 -64.5t-51 -42.5t-78.5 -27t-112.5 -7.5h-225v-360h-269zM371 567h129q76 0 98.5 23.5t22.5 105.5v148 q0 31 -0.5 45.5t-4 35.5t-10.5 30t-20 19t-34 13.5t-50 3.5h-131v-424z" />
<glyph unicode="&#xdf;" horiz-adv-x="854" d="M90 0v1206q0 27 1 44t7 48.5t17 52.5t34.5 47t56 41.5t84 26.5t116.5 11q169 0 250 -63t81 -200v-131q0 -49 -5 -80t-12.5 -50.5t-28 -32t-39.5 -18.5t-60 -15q45 -7 73.5 -14.5t51 -21t34.5 -28.5t19.5 -43t9.5 -59.5t2 -81.5v-401q0 -22 -0.5 -36t-5.5 -43.5t-14 -50 t-27.5 -46.5t-44.5 -42t-67 -27t-93 -11q-49 0 -141 18v141q20 -2 62 -2q25 0 42.5 8.5t26.5 19t13.5 29.5t5 31t0.5 33v375q0 86 -28 112.5t-130 26.5v166q27 0 39.5 0.5t31.5 2.5t26.5 6t18 12t14 20.5t6.5 30t3 41.5v149q0 20 -3 35t-11.5 31.5t-28 25.5t-49.5 9 q-32 0 -51.5 -6.5t-28.5 -21t-11.5 -28.5t-2.5 -37v-1210h-244z" />
<glyph unicode="&#xe0;" d="M66 266v52.5t1 44.5t3 40.5t6 33.5t9.5 31.5t14.5 26t20 26t27 22.5t35 24t43 23l254 127q0 107 -2 117q-6 69 -84 69q-14 0 -25 -2t-19.5 -5t-14.5 -11t-10.5 -13.5t-7 -19.5t-4 -23t-2.5 -30t-1 -33.5v-40.5h-223q0 131 8.5 178.5t48.5 87.5q80 80 267 80 q112 0 186 -39q38 -19 65 -45.5t39 -54t16.5 -49.5t4.5 -43v-584q0 -131 7.5 -180.5t39.5 -75.5h-256q-26 29 -29 92q-25 -29 -40 -44t-41.5 -34.5t-58 -28t-71.5 -8.5q-43 0 -76.5 11.5t-55 27.5t-36.5 44t-22 49.5t-11 56t-4.5 52t-0.5 48.5zM88 1446h313l136 -270h-177z M303 276q0 -62 12.5 -88t44.5 -26q49 0 117 59v307l-119 -77q-35 -24 -45 -58.5t-10 -116.5z" />
<glyph unicode="&#xe1;" d="M66 266v52.5t1 44.5t3 40.5t6 33.5t9.5 31.5t14.5 26t20 26t27 22.5t35 24t43 23l254 127q0 107 -2 117q-6 69 -84 69q-14 0 -25 -2t-19.5 -5t-14.5 -11t-10.5 -13.5t-7 -19.5t-4 -23t-2.5 -30t-1 -33.5v-40.5h-223q0 131 8.5 178.5t48.5 87.5q80 80 267 80 q112 0 186 -39q38 -19 65 -45.5t39 -54t16.5 -49.5t4.5 -43v-584q0 -131 7.5 -180.5t39.5 -75.5h-256q-26 29 -29 92q-25 -29 -40 -44t-41.5 -34.5t-58 -28t-71.5 -8.5q-43 0 -76.5 11.5t-55 27.5t-36.5 44t-22 49.5t-11 56t-4.5 52t-0.5 48.5zM276 1210l134 275h319 q-97 -99 -260 -275h-193zM303 276q0 -62 12.5 -88t44.5 -26q49 0 117 59v307l-119 -77q-35 -24 -45 -58.5t-10 -116.5z" />
<glyph unicode="&#xe2;" d="M66 266v52.5t1 44.5t3 40.5t6 33.5t9.5 31.5t14.5 26t20 26t27 22.5t35 24t43 23l254 127q0 107 -2 117q-6 69 -84 69q-14 0 -25 -2t-19.5 -5t-14.5 -11t-10.5 -13.5t-7 -19.5t-4 -23t-2.5 -30t-1 -33.5v-40.5h-223q0 131 8.5 178.5t48.5 87.5q80 80 267 80 q112 0 186 -39q38 -19 65 -45.5t39 -54t16.5 -49.5t4.5 -43v-584q0 -131 7.5 -180.5t39.5 -75.5h-256q-26 29 -29 92q-25 -29 -40 -44t-41.5 -34.5t-58 -28t-71.5 -8.5q-43 0 -76.5 11.5t-55 27.5t-36.5 44t-22 49.5t-11 56t-4.5 52t-0.5 48.5zM94 1176l176 270h265 l176 -270h-215l-90 147l-99 -147h-213zM303 276q0 -62 12.5 -88t44.5 -26q49 0 117 59v307l-119 -77q-35 -24 -45 -58.5t-10 -116.5z" />
<glyph unicode="&#xe3;" d="M66 266v52.5t1 44.5t3 40.5t6 33.5t9.5 31.5t14.5 26t20 26t27 22.5t35 24t43 23l254 127q0 107 -2 117q-6 69 -84 69q-14 0 -25 -2t-19.5 -5t-14.5 -11t-10.5 -13.5t-7 -19.5t-4 -23t-2.5 -30t-1 -33.5v-40.5h-223q0 131 8.5 178.5t48.5 87.5q80 80 267 80 q112 0 186 -39q38 -19 65 -45.5t39 -54t16.5 -49.5t4.5 -43v-584q0 -131 7.5 -180.5t39.5 -75.5h-256q-26 29 -29 92q-25 -29 -40 -44t-41.5 -34.5t-58 -28t-71.5 -8.5q-43 0 -76.5 11.5t-55 27.5t-36.5 44t-22 49.5t-11 56t-4.5 52t-0.5 48.5zM72 1176q1 43 3.5 67 t17.5 64.5t42 68.5q54 58 135 58q38 0 70 -10t115 -46q74 -32 100 -32q52 0 66 84h131q-1 -27 -1.5 -44t-4.5 -47t-11 -50.5t-20 -45t-30.5 -39.5t-45 -25t-61.5 -10q-32 0 -68.5 12t-118.5 46q-10 4 -23 9.5t-19 8t-14 5.5t-11 4.5t-8 3t-7.5 1.5t-6 0.5t-7.5 0.5 q-23 0 -40 -8t-27 -23.5t-14.5 -26t-8.5 -26.5h-133zM303 276q0 -62 12.5 -88t44.5 -26q49 0 117 59v307l-119 -77q-35 -24 -45 -58.5t-10 -116.5z" />
<glyph unicode="&#xe4;" d="M66 266v52.5t1 44.5t3 40.5t6 33.5t9.5 31.5t14.5 26t20 26t27 22.5t35 24t43 23l254 127q0 107 -2 117q-6 69 -84 69q-14 0 -25 -2t-19.5 -5t-14.5 -11t-10.5 -13.5t-7 -19.5t-4 -23t-2.5 -30t-1 -33.5v-40.5h-223q0 131 8.5 178.5t48.5 87.5q80 80 267 80 q112 0 186 -39q38 -19 65 -45.5t39 -54t16.5 -49.5t4.5 -43v-584q0 -131 7.5 -180.5t39.5 -75.5h-256q-26 29 -29 92q-25 -29 -40 -44t-41.5 -34.5t-58 -28t-71.5 -8.5q-43 0 -76.5 11.5t-55 27.5t-36.5 44t-22 49.5t-11 56t-4.5 52t-0.5 48.5zM94 1219v254h244v-254h-244z M303 276q0 -62 12.5 -88t44.5 -26q49 0 117 59v307l-119 -77q-35 -24 -45 -58.5t-10 -116.5zM469 1219v254h244v-254h-244z" />
<glyph unicode="&#xe5;" d="M66 266v52.5t1 44.5t3 40.5t6 33.5t9.5 31.5t14.5 26t20 26t27 22.5t35 24t43 23l254 127q0 107 -2 117q-6 69 -84 69q-14 0 -25 -2t-19.5 -5t-14.5 -11t-10.5 -13.5t-7 -19.5t-4 -23t-2.5 -30t-1 -33.5v-40.5h-223q0 131 8.5 178.5t48.5 87.5q80 80 267 80 q112 0 186 -39q38 -19 65 -45.5t39 -54t16.5 -49.5t4.5 -43v-584q0 -131 7.5 -180.5t39.5 -75.5h-256q-26 29 -29 92q-25 -29 -40 -44t-41.5 -34.5t-58 -28t-71.5 -8.5q-43 0 -76.5 11.5t-55 27.5t-36.5 44t-22 49.5t-11 56t-4.5 52t-0.5 48.5zM231 1354q0 77 54.5 130.5 t128.5 53.5q76 0 130 -53.5t54 -130.5q0 -74 -54 -128.5t-130 -54.5q-75 0 -129 54t-54 129zM303 276q0 -62 12.5 -88t44.5 -26q49 0 117 59v307l-119 -77q-35 -24 -45 -58.5t-10 -116.5zM330 1352q0 -35 24.5 -59.5t59.5 -24.5t59.5 24.5t24.5 59.5t-25 59.5t-59 24.5 t-59 -24.5t-25 -59.5z" />
<glyph unicode="&#xe6;" horiz-adv-x="1236" d="M63 307q0 35 0.5 52.5t4 46.5t10.5 45t21 39.5t34.5 39.5t51 34.5t71.5 35.5l233 96q0 99 -2 113q-10 72 -88 72q-57 0 -82 -41q-9 -17 -10.5 -35.5t-1.5 -89.5h-219v114q0 99 55 160q37 41 99 61.5t127 20.5q136 0 249 -61q59 33 93 39q68 20 147 20q134 0 222.5 -77.5 t88.5 -209.5v-313h-434v-184q0 -20 0.5 -31t5.5 -30t14 -29t28 -18.5t46 -8.5q54 0 76 31q13 17 16 42t3 107h243v-96q0 -8 -0.5 -18.5t-6 -37.5t-14.5 -51.5t-29 -53.5t-48 -50q-81 -61 -227 -61q-80 0 -133.5 19.5t-120.5 63.5q-133 -83 -262 -83q-131 0 -199 65 q-41 38 -51.5 93.5t-10.5 168.5zM295 301q0 -27 1.5 -43.5t9 -41t27 -37.5t50.5 -13q57 0 106 55v293q-41 -17 -62 -26.5t-47.5 -25t-38.5 -28.5t-25 -33t-17 -44t-4 -56zM733 633h189v129q0 17 -0.5 28t-5.5 29.5t-14 29.5t-28 19.5t-45 8.5q-96 0 -96 -109v-135z" />
<glyph unicode="&#xe7;" d="M78 285v465q0 130 59 202q92 117 281 117q70 0 137 -19t111 -55q46 -39 66 -91t20 -128v-125h-242v127q0 16 -0.5 26.5t-5.5 29.5t-13.5 30.5t-26.5 21t-44 9.5q-35 0 -57.5 -14t-31 -40t-10.5 -44t-2 -45v-455q0 -21 0.5 -34t6 -35t15 -35t29 -23t46.5 -10q94 0 94 135 v121h242v-119q0 -60 -12.5 -108.5t-31 -80t-48 -55.5t-54 -36.5t-59 -20.5t-54 -10t-47.5 -4v-95q217 0 220 -139q0 -47 -25.5 -79.5t-67 -46t-75 -18.5t-68.5 -5q-94 0 -174 20v62q57 -5 78 -5q98 0 98 62q0 47 -74 59v185q-148 21 -215 94q-65 71 -65 209z" />
<glyph unicode="&#xe8;" d="M78 315v443q0 175 112 252q87 61 222 61q159 0 254 -92q71 -73 71 -209v-299h-418v-172q0 -19 0.5 -31.5t5.5 -33t14 -33t27 -22t44 -9.5q41 0 65 31q14 19 17.5 42t3.5 103h237v-84q0 -66 -19 -116.5t-49.5 -81t-73 -50t-85.5 -27t-92 -7.5q-175 0 -255.5 85.5 t-80.5 249.5zM88 1446h313l136 -270h-177zM322 643h174v129q0 105 -84 105q-90 0 -90 -105v-129z" />
<glyph unicode="&#xe9;" d="M78 315v443q0 175 112 252q87 61 222 61q159 0 254 -92q71 -73 71 -209v-299h-418v-172q0 -19 0.5 -31.5t5.5 -33t14 -33t27 -22t44 -9.5q41 0 65 31q14 19 17.5 42t3.5 103h237v-84q0 -66 -19 -116.5t-49.5 -81t-73 -50t-85.5 -27t-92 -7.5q-175 0 -255.5 85.5 t-80.5 249.5zM276 1210l134 275h319q-97 -99 -260 -275h-193zM322 643h174v129q0 105 -84 105q-90 0 -90 -105v-129z" />
<glyph unicode="&#xea;" d="M78 315v443q0 175 112 252q87 61 222 61q159 0 254 -92q71 -73 71 -209v-299h-418v-172q0 -19 0.5 -31.5t5.5 -33t14 -33t27 -22t44 -9.5q41 0 65 31q14 19 17.5 42t3.5 103h237v-84q0 -66 -19 -116.5t-49.5 -81t-73 -50t-85.5 -27t-92 -7.5q-175 0 -255.5 85.5 t-80.5 249.5zM94 1176l176 270h265l176 -270h-215l-90 147l-99 -147h-213zM322 643h174v129q0 105 -84 105q-90 0 -90 -105v-129z" />
<glyph unicode="&#xeb;" d="M78 315v443q0 175 112 252q87 61 222 61q159 0 254 -92q71 -73 71 -209v-299h-418v-172q0 -19 0.5 -31.5t5.5 -33t14 -33t27 -22t44 -9.5q41 0 65 31q14 19 17.5 42t3.5 103h237v-84q0 -66 -19 -116.5t-49.5 -81t-73 -50t-85.5 -27t-92 -7.5q-175 0 -255.5 85.5 t-80.5 249.5zM92 1219v254h244v-254h-244zM322 643h174v129q0 105 -84 105q-90 0 -90 -105v-129zM467 1219v254h244v-254h-244z" />
<glyph unicode="&#xec;" horiz-adv-x="425" d="M-104 1446h313l135 -270h-176zM90 0v1049h246v-1049h-246z" />
<glyph unicode="&#xed;" horiz-adv-x="425" d="M84 1210l133 275h320q-114 -116 -261 -275h-192zM90 0v1049h246v-1049h-246z" />
<glyph unicode="&#xee;" horiz-adv-x="425" d="M-98 1176l176 270h264l176 -270h-215l-90 147l-98 -147h-213zM90 0v1049h246v-1049h-246z" />
<glyph unicode="&#xef;" horiz-adv-x="425" d="M-100 1219v254h243v-254h-243zM90 0v1049h246v-1049h-246zM274 1219v254h244v-254h-244z" />
<glyph unicode="&#xf0;" d="M78 297v469q0 126 57 199q36 45 93.5 75.5t125.5 30.5q44 0 75 -12t43.5 -24t25.5 -31q-16 87 -64 188l-231 -76l-47 107l211 73q-47 47 -103 93l203 84q47 -41 111 -109l141 47l47 -111l-123 -40q18 -35 28.5 -60t27 -80t24.5 -135.5t8 -183.5l2 -529 q0 -141 -86.5 -216.5t-249.5 -75.5q-66 0 -118 14t-85 34.5t-56.5 52.5t-34.5 58t-17.5 62t-7 53t-0.5 43zM322 256q0 -109 84 -109q25 0 42 8.5t25.5 19t13 28.5t5 28t0.5 27v533q0 36 -4.5 60.5t-23.5 45.5t-54 21q-25 0 -43 -9.5t-26.5 -21.5t-13 -33t-5 -33t-0.5 -33 v-532z" />
<glyph unicode="&#xf1;" horiz-adv-x="854" d="M90 0v1049h248l-4 -78q25 24 40 36.5t42 29.5t58.5 24.5t70.5 7.5q108 0 168 -70q23 -26 34.5 -59.5t13 -56t1.5 -64.5v-819h-240v770q0 27 -2 45t-10 39t-26.5 32t-47.5 11t-49.5 -11t-30.5 -24.5t-15.5 -36.5t-6 -35.5t-0.5 -33.5v-756h-244zM94 1176q1 41 4 66.5 t18 65.5t42 68q54 58 135 58q38 0 69.5 -10t114.5 -46q74 -32 101 -32q23 0 37.5 15.5t19 30t8.5 38.5h131q-1 -27 -1.5 -44t-4.5 -47t-11 -50.5t-20 -45t-30.5 -39.5t-45 -25t-61.5 -10q-23 0 -51.5 7.5t-52.5 17t-82 33.5q-84 32 -97 33q-23 0 -40 -8t-27 -23.5t-14.5 -26 t-8.5 -26.5h-133z" />
<glyph unicode="&#xf2;" d="M78 297v469q0 303 332 303q136 0 221 -57q60 -42 81 -101t21 -135v-504q0 -141 -86.5 -216.5t-249.5 -75.5q-66 0 -118 14t-85 34.5t-56.5 52.5t-34.5 58t-17.5 62t-7 53t-0.5 43zM88 1446h313l136 -270h-177zM322 256q0 -109 84 -109q25 0 42 8.5t25.5 19t13 28.5t5 28 t0.5 27v533q0 36 -4.5 60.5t-23.5 45.5t-54 21q-25 0 -43 -9.5t-26.5 -21.5t-13 -33t-5 -33t-0.5 -33v-532z" />
<glyph unicode="&#xf3;" d="M78 297v469q0 303 332 303q136 0 221 -57q60 -42 81 -101t21 -135v-504q0 -141 -86.5 -216.5t-249.5 -75.5q-66 0 -118 14t-85 34.5t-56.5 52.5t-34.5 58t-17.5 62t-7 53t-0.5 43zM276 1210l134 275h319q-97 -99 -260 -275h-193zM322 256q0 -109 84 -109q25 0 42 8.5 t25.5 19t13 28.5t5 28t0.5 27v533q0 36 -4.5 60.5t-23.5 45.5t-54 21q-25 0 -43 -9.5t-26.5 -21.5t-13 -33t-5 -33t-0.5 -33v-532z" />
<glyph unicode="&#xf4;" d="M78 297v469q0 303 332 303q136 0 221 -57q60 -42 81 -101t21 -135v-504q0 -141 -86.5 -216.5t-249.5 -75.5q-66 0 -118 14t-85 34.5t-56.5 52.5t-34.5 58t-17.5 62t-7 53t-0.5 43zM94 1176l176 270h265l176 -270h-215l-90 147l-99 -147h-213zM322 256q0 -109 84 -109 q25 0 42 8.5t25.5 19t13 28.5t5 28t0.5 27v533q0 36 -4.5 60.5t-23.5 45.5t-54 21q-25 0 -43 -9.5t-26.5 -21.5t-13 -33t-5 -33t-0.5 -33v-532z" />
<glyph unicode="&#xf5;" d="M72 1176q1 43 3.5 67t17.5 64.5t42 68.5q54 58 135 58q38 0 70 -10t115 -46q74 -32 100 -32q52 0 66 84h131q-1 -27 -1.5 -44t-4.5 -47t-11 -50.5t-20 -45t-30.5 -39.5t-45 -25t-61.5 -10q-32 0 -68.5 12t-118.5 46q-10 4 -23 9.5t-19 8t-14 5.5t-11 4.5t-8 3t-7.5 1.5 t-6 0.5t-7.5 0.5q-23 0 -40 -8t-27 -23.5t-14.5 -26t-8.5 -26.5h-133zM78 297v469q0 303 332 303q136 0 221 -57q60 -42 81 -101t21 -135v-504q0 -141 -86.5 -216.5t-249.5 -75.5q-66 0 -118 14t-85 34.5t-56.5 52.5t-34.5 58t-17.5 62t-7 53t-0.5 43zM322 256 q0 -109 84 -109q25 0 42 8.5t25.5 19t13 28.5t5 28t0.5 27v533q0 36 -4.5 60.5t-23.5 45.5t-54 21q-25 0 -43 -9.5t-26.5 -21.5t-13 -33t-5 -33t-0.5 -33v-532z" />
<glyph unicode="&#xf6;" d="M78 297v469q0 303 332 303q136 0 221 -57q60 -42 81 -101t21 -135v-504q0 -141 -86.5 -216.5t-249.5 -75.5q-66 0 -118 14t-85 34.5t-56.5 52.5t-34.5 58t-17.5 62t-7 53t-0.5 43zM88 1219v254h244v-254h-244zM322 256q0 -109 84 -109q25 0 42 8.5t25.5 19t13 28.5t5 28 t0.5 27v533q0 36 -4.5 60.5t-23.5 45.5t-54 21q-25 0 -43 -9.5t-26.5 -21.5t-13 -33t-5 -33t-0.5 -33v-532zM463 1219v254h244v-254h-244z" />
<glyph unicode="&#xf7;" horiz-adv-x="1024" d="M0 514v162h1024v-162h-1024zM399 299q0 48 35 81.5t82 33.5q46 0 80.5 -32.5t34.5 -84.5q0 -47 -34 -80t-83 -33q-50 0 -82.5 33t-32.5 82zM399 887q0 50 32.5 84.5t84.5 34.5q51 0 83 -34.5t32 -82.5q0 -41 -30 -77t-85 -36q-49 0 -83 32.5t-34 78.5z" />
<glyph unicode="&#xf8;" d="M18 35l76 112q-9 26 -11.5 45.5t-2.5 77.5v506q0 105 39 166q42 67 117 98t165 31q80 0 134 -18t106 -52l51 78l84 -53l-74 -104q29 -46 29 -152v-500q0 -119 -65 -192q-29 -34 -64.5 -56t-74 -30t-61 -10t-54.5 -2q-86 0 -139 20t-115 66l-56 -84zM299 289 q0 -23 0.5 -35.5t6 -33t15 -31.5t29.5 -20t49 -9q105 0 105 114v338zM303 475l205 320q-1 15 -2 25t-7 27t-15.5 27.5t-28.5 18.5t-45 8q-107 0 -107 -125v-301z" />
<glyph unicode="&#xf9;" horiz-adv-x="854" d="M90 258v791h244v-756q0 -21 0.5 -33t5.5 -32t13.5 -31t26.5 -20t44 -9q27 0 46 10t28 22.5t14 34.5t5.5 35.5t0.5 36.5v742h246v-1049h-246v84q-42 -34 -61 -48.5t-67 -34t-97 -19.5q-29 0 -57 7t-58 24t-52 50.5t-30 79.5q-6 33 -6 115zM111 1446h313l135 -270h-176z " />
<glyph unicode="&#xfa;" horiz-adv-x="854" d="M90 258v791h244v-756q0 -21 0.5 -33t5.5 -32t13.5 -31t26.5 -20t44 -9q27 0 46 10t28 22.5t14 34.5t5.5 35.5t0.5 36.5v742h246v-1049h-246v84q-42 -34 -61 -48.5t-67 -34t-97 -19.5q-29 0 -57 7t-58 24t-52 50.5t-30 79.5q-6 33 -6 115zM299 1210l133 275h320 q-97 -99 -260 -275h-193z" />
<glyph unicode="&#xfb;" horiz-adv-x="854" d="M90 258v791h244v-756q0 -21 0.5 -33t5.5 -32t13.5 -31t26.5 -20t44 -9q27 0 46 10t28 22.5t14 34.5t5.5 35.5t0.5 36.5v742h246v-1049h-246v84q-42 -34 -61 -48.5t-67 -34t-97 -19.5q-29 0 -57 7t-58 24t-52 50.5t-30 79.5q-6 33 -6 115zM117 1176l176 270h264l176 -270 h-215l-90 147l-98 -147h-213z" />
<glyph unicode="&#xfc;" horiz-adv-x="854" d="M90 258v791h244v-756q0 -21 0.5 -33t5.5 -32t13.5 -31t26.5 -20t44 -9q27 0 46 10t28 22.5t14 34.5t5.5 35.5t0.5 36.5v742h246v-1049h-246v84q-42 -34 -61 -48.5t-67 -34t-97 -19.5q-29 0 -57 7t-58 24t-52 50.5t-30 79.5q-6 33 -6 115zM109 1219v254h243v-254h-243z M483 1219v254h244v-254h-244z" />
<glyph unicode="&#xfd;" horiz-adv-x="724" d="M2 1049h242l135 -674l104 674h240l-240 -1123q-18 -85 -37.5 -136t-52 -87t-79.5 -50.5t-119 -14.5q-54 0 -162 18l35 192q45 -14 96 -14q29 0 51 16.5t33.5 40t17.5 48.5t7.5 41.5t0.5 19.5zM233 1210l134 275h319q-97 -99 -260 -275h-193z" />
<glyph unicode="&#xfe;" horiz-adv-x="854" d="M90 -360v1806h242v-477q32 27 55 44t70.5 36.5t95.5 19.5q98 0 164 -72q59 -64 59 -204v-555q0 -99 -35 -158q-54 -100 -180 -100q-48 0 -94 18.5t-68.5 35.5t-66.5 54v-448h-242zM334 295q0 -117 98 -117t98 109v485q0 115 -96 115q-100 0 -100 -121v-471z" />
<glyph unicode="&#xff;" horiz-adv-x="724" d="M2 1049h242l135 -674l104 674h240l-240 -1123q-18 -85 -37.5 -136t-52 -87t-79.5 -50.5t-119 -14.5q-54 0 -162 18l35 192q45 -14 96 -14q29 0 51 16.5t33.5 40t17.5 48.5t7.5 41.5t0.5 19.5zM49 1219v254h244v-254h-244zM424 1219v254h244v-254h-244z" />
<glyph unicode="&#x152;" horiz-adv-x="1409" d="M90 322v751q0 56 1.5 85.5t10 72t25.5 78.5q43 87 134.5 127.5t191.5 40.5q58 0 106.5 -11t84.5 -33t52 -34.5t39 -34.5v84h608v-225h-456v-338h432v-215h-432v-443h473v-227h-625v63q-31 -26 -55.5 -42.5t-86.5 -34t-140 -17.5q-74 0 -133.5 16t-97 38.5t-64.5 58.5 t-39.5 65t-19.5 69t-8 59.5t-1 46.5zM358 334q0 -152 131 -152q37 0 63 13t38.5 29t19 43t7.5 42.5t1 40.5v737q0 29 -0.5 44t-4 40.5t-12 40t-22.5 29.5t-38 22t-56 7q-31 0 -53.5 -7.5t-36 -24t-21.5 -31t-11.5 -40.5t-4 -40.5t-0.5 -41.5v-751z" />
<glyph unicode="&#x153;" horiz-adv-x="1236" d="M78 295v448q0 35 2.5 60t10 60.5t27 67.5t50.5 60q90 80 227 80q49 0 94 -13.5t69 -27.5t56 -37q132 78 246 78q134 0 219 -82q50 -48 65 -102t15 -123v-293h-416v-190q0 -115 95 -115q48 0 71 37q9 17 11.5 39t3.5 110h235q0 -138 -9 -191.5t-50 -99.5q-74 -81 -244 -81 q-63 0 -115.5 12.5t-74.5 24t-54 32.5q-30 -21 -52.5 -33t-71 -24t-107.5 -12q-132 0 -211 69q-32 28 -52.5 62t-28 71.5t-9.5 59t-2 53.5zM326 260q0 -100 80 -100q94 0 94 106v508q0 113 -84 113q-90 0 -90 -113v-514zM741 635h179v139q0 16 -0.5 26.5t-5.5 29t-13.5 30 t-26.5 20.5t-43 9q-90 0 -90 -111v-143z" />
<glyph unicode="&#x178;" horiz-adv-x="854" d="M4 1446h281l145 -729l141 729h281l-289 -1018v-428h-270v444zM102 1563v247h240v-247h-240zM514 1563v249h240v-249h-240z" />
<glyph unicode="&#x2c6;" horiz-adv-x="512" d="M-51 1176l176 270h264l176 -270h-215l-90 147l-98 -147h-213z" />
<glyph unicode="&#x2dc;" horiz-adv-x="512" d="M-84 1176q1 41 4 66.5t18 65.5t42 68q54 58 135 58q38 0 69.5 -10t114.5 -46q74 -32 100 -32q52 0 66 84h131q-1 -27 -1.5 -44t-4.5 -47t-11 -50.5t-20 -45t-30.5 -39.5t-45 -25t-61.5 -10q-23 0 -51.5 7.5t-52.5 17t-82 33.5q-84 32 -97 33q-23 0 -40 -8t-27 -23.5 t-14.5 -26t-8.5 -26.5h-133z" />
<glyph unicode="&#x2000;" horiz-adv-x="941" />
<glyph unicode="&#x2001;" horiz-adv-x="1882" />
<glyph unicode="&#x2002;" horiz-adv-x="941" />
<glyph unicode="&#x2003;" horiz-adv-x="1882" />
<glyph unicode="&#x2004;" horiz-adv-x="627" />
<glyph unicode="&#x2005;" horiz-adv-x="470" />
<glyph unicode="&#x2006;" horiz-adv-x="313" />
<glyph unicode="&#x2007;" horiz-adv-x="313" />
<glyph unicode="&#x2008;" horiz-adv-x="235" />
<glyph unicode="&#x2009;" horiz-adv-x="376" />
<glyph unicode="&#x200a;" horiz-adv-x="104" />
<glyph unicode="&#x2010;" horiz-adv-x="681" d="M68 446v203h548v-203h-548z" />
<glyph unicode="&#x2011;" horiz-adv-x="681" d="M68 446v203h548v-203h-548z" />
<glyph unicode="&#x2012;" horiz-adv-x="681" d="M68 446v203h548v-203h-548z" />
<glyph unicode="&#x2013;" d="M57 444v203h697v-203h-697z" />
<glyph unicode="&#x2014;" horiz-adv-x="1067" d="M61 446v205h943v-205h-943z" />
<glyph unicode="&#x2018;" horiz-adv-x="382" d="M70 897v274l155 277h86l-125 -277h125v-274h-241z" />
<glyph unicode="&#x2019;" horiz-adv-x="382" d="M51 897l142 277h-127v272h241v-272l-164 -277h-92z" />
<glyph unicode="&#x201a;" horiz-adv-x="382" d="M51 -276l142 276h-121v264h241v-264l-170 -276h-92z" />
<glyph unicode="&#x201c;" horiz-adv-x="768" d="M68 901v266l174 279h94l-152 -279h127v-266h-243zM444 901v266l162 279h96l-139 -279h125v-266h-244z" />
<glyph unicode="&#x201d;" horiz-adv-x="768" d="M61 901l140 279h-125v266h243v-266l-161 -279h-97zM428 901l152 279h-127v266h243v-266l-174 -279h-94z" />
<glyph unicode="&#x201e;" horiz-adv-x="768" d="M78 0v266h241v-266l-143 -281h-88l119 281h-129zM449 0v266h241v-266l-149 -281h-92l131 281h-131z" />
<glyph unicode="&#x2022;" horiz-adv-x="681" d="M76 723q0 109 77.5 187.5t190.5 78.5t188.5 -75t75.5 -191q0 -121 -76 -193.5t-184 -72.5q-118 0 -195 77.5t-77 188.5z" />
<glyph unicode="&#x2026;" horiz-adv-x="2048" d="M221 0v264h242v-264h-242zM903 0v264h242v-264h-242zM1585 0v264h242v-264h-242z" />
<glyph unicode="&#x202f;" horiz-adv-x="376" />
<glyph unicode="&#x2039;" horiz-adv-x="342" d="M63 451v188l209 199v-199l-82 -92l82 -82v-205z" />
<glyph unicode="&#x203a;" horiz-adv-x="342" d="M70 260v199l86 92l-86 84v203l209 -193v-192z" />
<glyph unicode="&#x205f;" horiz-adv-x="470" />
<glyph unicode="&#x2122;" horiz-adv-x="1406" d="M33 1346v100h553v-100h-215v-580h-119v580h-219zM643 766v680h162l170 -537l166 537h162v-680h-117l4 420l6 139l-33 -115l-139 -444h-106l-173 557l9 -137l4 -420h-115z" />
<glyph unicode="&#x25fc;" horiz-adv-x="1044" d="M0 0v1044h1044v-1044h-1044z" />
<glyph unicode="&#xfb01;" horiz-adv-x="937" d="M25 887v162h108v184q0 45 11 80.5t26.5 57.5t42.5 38t47.5 24t53 12t49.5 4.5t45 0.5q22 0 84 -4v-199q-10 0 -31 1l-21 1q-63 0 -63 -71v-129h106v-162h-108v-887h-244v887h-106zM602 0v1049h246v-1049h-246zM602 1200v248h244v-248h-244z" />
<glyph unicode="&#xfb02;" horiz-adv-x="937" d="M25 887v162h108v184q0 45 11 80.5t26.5 57.5t42.5 38t47.5 24t53 12t49.5 4.5t45 0.5q22 0 84 -4v-199q-10 0 -31 1l-21 1q-63 0 -63 -71v-129h106v-162h-108v-887h-244v887h-106zM602 0v1448h246v-1448h-246z" />
</font>
</defs>
</svg>
